<?xml version="1.0" standalone="no"?>
<!DOCTYPE svg PUBLIC "-//W3C//DTD SVG 1.1//EN" "http://www.w3.org/Graphics/SVG/1.1/DTD/svg11.dtd" >
<svg xmlns="http://www.w3.org/2000/svg">
<metadata>
This is a custom SVG webfont generated by Font Squirrel.
Copyright   : Copyright c 2000 Red Rooster Typefoundry All rights reserved Data Copyright c 1999 dtpTypes Limited
</metadata>
<defs>
<font id="EquestrienneRRBookBold" horiz-adv-x="1296" >
<font-face units-per-em="2048" ascent="1638" descent="-410" />
<missing-glyph horiz-adv-x="477" />
<glyph unicode=" "  horiz-adv-x="477" />
<glyph unicode="&#x09;" horiz-adv-x="477" />
<glyph unicode="&#xa0;" horiz-adv-x="477" />
<glyph unicode="!" horiz-adv-x="846" d="M109 1237v123l14 -2q43 -6 299 -6q220 0 303 6l12 2v-123l-14 -2q-89 -13 -109 -17q-31 -6 -43 -16q-16 -14 -18 -96l-18 -647h-224l-18 647q-2 82 -18 95.5t-152 33.5zM289 125q0 158 141 158t141 -154q0 -156 -141 -156t-141 152z" />
<glyph unicode="&#x22;" d="M346 1360h260l-61 -445h-135zM700 1360h252l-61 -445h-137z" />
<glyph unicode="#" d="M207 602l24 154h154l31 190h-154l25 158h153l41 254h166l-41 -254h178l41 254h158l-39 -254h148l-27 -158h-145l-31 -190h145l-24 -154h-146l-49 -295h-160l47 295h-178l-47 -295h-164l47 295h-153zM549 756h178l33 190h-180z" />
<glyph unicode="$" d="M100 389h121l2 -14q21 -145 43 -164q27 -23 118.5 -40t188.5 -17h27v426l-18 4q-241 53 -353 143.5t-112 257.5q0 180 124 279.5t359 107.5v193h94v-191q34 -1 146 -8q183 -14 256 -14v-189l8 -192h-127l-2 14l-10 74q-12 80 -66 96q-85 25 -205 29v-344l17 -4 q256 -64 360 -142q127 -94 127 -288q0 -398 -504 -441v-246h-94v242q-147 0 -268 19l-121 18q-27 4 -82 10q-1 0 -7.5 1t-10.5 1q2 37 2 80t-4 123zM410 1030q0 -69 51 -108q23 -18 123 -56l16 -6v324q-190 -13 -190 -154zM694 164l21 4q182 36 182 192q0 75 -46 118.5 t-157 74.5v-389z" />
<glyph unicode="%" horiz-adv-x="1946" d="M223 985q0 212 71 306.5t228 94.5q161 0 233 -91t72 -296t-72.5 -298t-232.5 -93q-299 0 -299 377zM393 1001q0 -147 29 -202.5t106 -55.5q73 0 100 55.5t27 200.5q0 142 -28.5 197t-102.5 55q-72 0 -101.5 -55.5t-29.5 -194.5zM578 -6l628 1366h160l-631 -1366h-157z M1118 344q0 210 71.5 305.5t227.5 95.5q161 0 233 -91t72 -296t-72.5 -298t-232.5 -93q-299 0 -299 377zM1288 358q0 -147 29 -202.5t106 -55.5q72 0 99.5 56t27.5 200q0 142 -28.5 197t-102.5 55q-72 0 -101.5 -55t-29.5 -195z" />
<glyph unicode="&#x26;" horiz-adv-x="1855" d="M178 477q0 398 287 434q-23 62 -23 125q0 168 112 257t323 89q87 0 235 -10q178 -12 176 -12h23v-19q0 -14 -1 -42.5t-1 -43.5q0 -10 3 -62.5t3 -127.5v-18h-129q-4 60 -15 102q-7 28 -43 35q-92 18 -182 18q-237 0 -237 -160q0 -87 59 -163q62 -81 150 -162l352 -330 q90 105 90 287q0 63 -14 76q-20 16 -148 32l-16 2v125l14 -2q45 -2 176 -2q162 0 178 2l17 2v-18l2 -211q2 -242 -160 -414l104 -88q39 -32 77.5 -43.5t129.5 -17.5v-123l-16 2l-166 4q-27 0 -170 -4l-14 -2l-129 112q-38 -33 -99 -63q-163 -82 -372 -82q-300 0 -438 123.5 t-138 392.5zM440 524q0 -262 142 -336q82 -43 209 -43q89 0 161 23q27 8 113 57l14 8l-280 265q-46 43 -98 97t-140 159l-10 14q-23 -11 -37 -20q-24 -16 -47 -43q-27 -48 -27 -181z" />
<glyph unicode="'" d="M522 1360h252l-55 -445h-137z" />
<glyph unicode="(" horiz-adv-x="649" d="M45 578q0 491 134 724t423 242v-137q-59 -14 -90 -33q-199 -120 -199 -770q0 -396 68.5 -589t218.5 -222v-131h-2q-553 0 -553 916z" />
<glyph unicode=")" horiz-adv-x="649" d="M47 -207q152 29 219.5 220t67.5 589q0 466 -107 670q-54 103 -180 135v137q287 -7 421 -239.5t134 -722.5q0 -920 -549 -920h-6v131z" />
<glyph unicode="*" d="M346 1069l182 121l-182 119l47 90l195 -99l14 216h94l11 -218l196 101l49 -80l-184 -123l184 -121l-49 -84l-194 99l-11 -218h-96l-12 218l-197 -105z" />
<glyph unicode="+" d="M102 459v168l23 -2l276 -2l168 -5l2 25q-1 24 -4 162l-8 287h178v-21q0 -80 -6 -264q-4 -123 -4 -158v-31h25l163 5l281 4v-168l-27 2q-55 0 -256 2q-55 -1 -155 2l-31 2v-31l2 -123l10 -319h-178l2 20q4 41 4 305q0 93 2 148l-22 -2q-24 0 -76.5 -1t-79.5 -1 q-94 0 -182.5 -1t-83.5 -1z" />
<glyph unicode="," horiz-adv-x="649" d="M164 74l8 8q129 106 205 186q108 -95 108 -264q0 -194 -131 -358l-8 -11l-90 52q78 128 78 231q0 37 -17.5 64.5t-40.5 27.5q-18 0 -47 -20z" />
<glyph unicode="-" horiz-adv-x="649" d="M-6 485v168h20q18 0 114 -2t173 -2q92 0 203 2t131 2h20v-168q-12 0 -20 2q-119 5 -297 5q-197 0 -324 -5q-13 -2 -20 -2z" />
<glyph unicode="." horiz-adv-x="649" d="M182 123q0 160 142 160q141 0 141 -152q0 -158 -143 -158q-140 0 -140 150z" />
<glyph unicode="/" horiz-adv-x="649" d="M-86 -33l655 1419h164l-655 -1419h-164z" />
<glyph unicode="0" d="M98 653q0 384 129.5 557.5t415.5 173.5q293 0 424 -166t131 -538q0 -373 -131.5 -542t-423.5 -169q-279 0 -412 167t-133 517zM367 686q0 -315 61.5 -434t224.5 -119q157 0 217 119t60 428q0 304 -62 422.5t-221 118.5q-155 0 -217.5 -120t-62.5 -415z" />
<glyph unicode="1" d="M330 1079v187q175 32 272 120h191v-14l-9 -287l-6 -333l4 -494q0 -21 1 -46t1 -30q4 -33 31.5 -45.5t132.5 -23.5l19 -2v-117h-15q-31 0 -130.5 3t-168.5 3q-67 0 -167 -3t-134 -3h-16v117q96 3 149 24q23 10 29 29q7 25 8 98l6 416l-4 487q-79 -70 -194 -86z" />
<glyph unicode="2" d="M119 -6q2 112 26 207q57 221 285 379l246 170q174 120 174 262q0 200 -244 200q-102 0 -188 -24q-36 -10 -47.5 -27.5t-16.5 -68.5l-8 -86h-127q8 81 8 278v51l17 4q172 43 399 43q235 0 360 -97t125 -279q0 -154 -90 -258q-68 -80 -231 -177l-152 -90 q-223 -133 -266 -309h19q64 0 156 -1t118 -1q119 0 285 6q31 1 45 8q18 15 39 156l2 14h127l-2 -16l-11 -162q-4 -65 -4 -127v-55h-1044z" />
<glyph unicode="3" d="M137 336h125q2 -26 12 -84q12 -63 27 -78q48 -45 246 -45q157 0 244.5 74.5t87.5 208.5q0 266 -320 266q-106 0 -174 -19l-61 103l12 10l446 397q-65 2 -155 2h-160q-119 0 -137 -18q-16 -13 -31 -149l-2 -19h-127l2 16q10 82 10 297v62h905v-131l-12 -8l-205 -183 q-141 -125 -190 -172q-4 -4 -21 -18h41q208 0 333.5 -116.5t125.5 -309.5q0 -229 -172 -352q-146 -105 -428 -105q-195 0 -414 43v103q0 159 -6 208z" />
<glyph unicode="4" d="M80 383v158l10 12q86 98 334 391q141 175 324 399l18 23h272v-25l-6 -229l-4 -567l170 2v-164l-170 2l4 -197q2 -34 19 -45q25 -17 149 -30l19 -2v-117h-17q-31 0 -133.5 3t-173.5 3q-68 0 -163.5 -3t-123.5 -3h-14v117q86 6 135 20q30 8 38 23.5t9 62.5l4 166l-16 2 q-9 0 -89 1t-151 1h-55zM295 547h20q13 0 96.5 -1t153.5 -1q56 0 123.5 1t79.5 1h14v14l4 258l-2 328l-16 -21q-62 -73 -238 -288q-90 -114 -221 -275z" />
<glyph unicode="5" d="M143 334h125l2 -12q9 -53 17 -107q6 -28 18 -39q50 -45 273 -45q299 0 299 279q0 282 -324 282q-167 0 -274 -43l-11 -4l-104 113l2 20q5 25 43 287l41 295h811l-2 -17l4 -163l10 -193h-125l-2 14l-10 78q-9 68 -47 82q-23 8 -211 8q-240 0 -258 -2l-19 -2l-2 -16 l-20 -141l-21 -166q120 26 254 26q263 0 402 -111.5t139 -322.5q0 -228 -149 -352q-139 -115 -437 -115q-112 0 -213 13q-37 6 -188 28l-14 2q0 16 1 36t1 32q0 42 -2 92z" />
<glyph unicode="6" d="M117 618q0 395 142 581.5t443 186.5q99 0 295 -24l17 -2v-55q0 -55 2 -95l8 -176h-123l-2 15q-4 28 -10 81q-6 47 -25 64q-30 27 -145 27q-210 0 -285 -148q-48 -95 -67 -315q123 114 338 114q228 0 352.5 -110.5t124.5 -315.5q0 -479 -527 -479q-287 0 -412.5 152 t-125.5 499zM377 455q0 -132 65 -230q61 -90 211 -90q260 0 260 293q0 281 -266 281q-127 0 -198.5 -67.5t-71.5 -186.5z" />
<glyph unicode="7" d="M150 991v17l8 188l-2 164h991v-109l-6 -12l-236 -598q-59 -178 -231 -637l-4 -10h-301l6 12q27 59 129 281q110 237 264 608l113 276h-19q-39 0 -116.5 1.5t-114.5 1.5q-101 0 -238 -3q-31 1 -80 -14q-25 -25 -41 -166h-122z" />
<glyph unicode="8" d="M96 410q0 306 277 358q-226 52 -226 274q0 342 498 342q244 0 365 -71q143 -86 143 -269q0 -218 -219 -274q266 -61 266 -356q0 -124 -49 -234q-94 -211 -510 -211q-283 0 -414 106t-131 335zM365 403q0 -276 286 -276q283 0 283 287q0 278 -287 278q-282 0 -282 -268 v-21zM412 1038q0 -192 237 -192q240 0 240 190q0 189 -240 189q-237 0 -237 -187z" />
<glyph unicode="9" d="M117 915q0 478 526 478q284 0 410.5 -149t126.5 -484q0 -474 -205 -666q-129 -121 -377 -121q-117 0 -297 23l-16 2v14l-2 135l-9 177h123l2 -15q14 -95 17 -108q5 -26 18 -37q28 -25 135 -25q228 0 305 168q47 101 56 293q-115 -115 -332 -115q-230 0 -355.5 112.5 t-125.5 317.5zM385 932q0 -283 260 -283q129 0 202 67t73 187q0 133 -66 230q-61 90 -209 90q-260 0 -260 -291z" />
<glyph unicode=":" horiz-adv-x="649" d="M182 123q0 160 142 160q141 0 141 -152q0 -158 -143 -158q-140 0 -140 150zM182 674q0 160 142 160q141 0 141 -152q0 -158 -143 -158q-140 0 -140 150z" />
<glyph unicode=";" horiz-adv-x="649" d="M164 74l8 8q129 106 205 186q108 -95 108 -264q0 -194 -131 -358l-8 -11l-90 52q78 128 78 231q0 37 -17.5 64.5t-40.5 27.5q-18 0 -47 -20zM164 688q0 158 139 158q143 0 143 -152q0 -157 -143 -157q-139 0 -139 151z" />
<glyph unicode="&#x3c;" horiz-adv-x="512" d="M139 580l99 96l-99 96l21 21l96 -97l96 97l21 -21l-99 -96l99 -96l-21 -19l-96 96l-96 -96z" />
<glyph unicode="=" d="M102 252v166h17q90 -8 592 -8q411 0 467 6l18 2v-166l-18 2q-56 6 -488 6q-522 0 -571 -6zM102 668v168l17 -2q49 -7 524 -7q479 0 535 7l18 2v-168l-18 2q-56 6 -488 6q-522 0 -571 -6z" />
<glyph unicode="&#x3e;" horiz-adv-x="512" d="M139 580l99 96l-99 96l21 21l96 -97l96 97l21 -21l-99 -96l99 -96l-21 -19l-96 96l-96 -96z" />
<glyph unicode="?" horiz-adv-x="1063" d="M86 1022l2 18q4 36 8 170q2 66 2 129v17h17q42 2 188 14q118 10 211 10q463 0 463 -358q0 -125 -76 -221q-42 -54 -137 -109q-126 -72 -155 -105.5t-29 -101.5v-26h-238v39q0 178 139 266l84 53q80 51 108.5 94.5t28.5 110.5q0 190 -266 190q-156 0 -190 -32 q-18 -17 -33 -158h-127zM315 125q0 158 140 158q143 0 143 -154q0 -156 -143 -156q-140 0 -140 152z" />
<glyph unicode="@" horiz-adv-x="1788" d="M109 672q0 323 231 539t575 216q338 0 550 -195t212 -507q0 -200 -107 -326.5t-276 -126.5q-184 0 -250 162q-95 -147 -256 -147q-113 0 -183 81t-70 212q0 195 120.5 337t286.5 142q75 0 145 -39l7 43h172l-78 -553q0 -57 38 -96t95 -39q106 0 170.5 92.5t64.5 243.5 q0 264 -175.5 434t-448.5 170q-278 0 -462.5 -180t-184.5 -451q0 -275 193.5 -462t475.5 -187q196 0 400 115l45 -82q-85 -52 -160 -82q-153 -62 -328 -62q-344 0 -573 213.5t-229 534.5zM721 600q0 -81 36.5 -131.5t94.5 -50.5q68 0 120.5 66.5t65.5 168.5l37 277 q-56 41 -110 41q-102 0 -173 -108.5t-71 -262.5z" />
<glyph unicode="A" horiz-adv-x="1585" d="M8 -6v123l15 2q87 12 105 17q29 9 42 30q10 15 31 63q64 147 174 435l184 487q12 33 12 45q0 14 -10 25q-10 6 -88 18h-14v125h14q22 0 122 -3t150 -3q129 0 197 6h10q2 -6 4 -10q14 -50 78 -221l105 -279l237 -610q34 -84 66 -97q49 -19 133 -28v-125h-12 q-23 0 -127.5 3t-186.5 3q-81 0 -185.5 -3t-127.5 -3h-12v123q49 7 100 18q61 13 61 39q0 10 -4 24t-12 40q-16 50 -31 94q-12 36 -30 92l-7 14q-8 2 -16 2q-47 2 -242 2q-188 0 -237 -2q-3 0 -14 -2l-7 -12q-28 -73 -73 -215q-6 -19 -6 -33q0 -24 30 -35q53 -17 139 -24 l3 -125h-15q-26 0 -124.5 3t-170.5 3q-62 0 -144.5 -3t-103.5 -3h-12zM549 606q3 0 8.5 -1t7.5 -1q8 0 63 -1t101 -1q158 0 215 4l-8 19q-20 58 -86 243q-48 135 -92 244l-13 31q-9 -23 -12 -33q-17 -42 -90 -238q-28 -83 -88 -249z" />
<glyph unicode="B" horiz-adv-x="1475" d="M68 -6v123q139 12 161 35q19 18 19 47v47q0 65 3 222t3 230q0 94 -2 195l-4 203q-2 83 -17 100q-33 26 -163 39v125l14 -2l149 -2h172q108 0 205 4q146 6 230 6q471 0 471 -319q0 -233 -242 -289q313 -54 313 -352q0 -418 -514 -418q-55 0 -227 4q-56 2 -205 6l-184 2 q-103 0 -170 -6h-12zM537 1016l2 -187l16 -2q33 -4 154 -4q159 0 229 44.5t70 144.5q0 180 -279 180q-106 0 -188 -10v-19zM539 662l4 -500h20l84 -4q84 -4 88 -4q186 0 262 58t76 200q0 139 -76.5 197.5t-261.5 58.5q-114 0 -182 -6h-14z" />
<glyph unicode="C" horiz-adv-x="1341" d="M109 670q0 469 268 630q142 86 383 86q108 0 266 -12q105 -8 150 -8h12q-2 -31 -2 -68q0 -26 4 -123t4 -159v-17l-123 -2l-2 13l-12 82q-8 54 -31 73q-49 33 -215 33q-209 0 -303 -117.5t-94 -378.5q0 -542 415 -542q187 0 226 41q20 21 39 153l2 15h123v-15l-7 -147 l-2 -176l-2 -13l-12 -4q-225 -47 -432 -47q-339 0 -490 168q-165 185 -165 535z" />
<glyph unicode="D" horiz-adv-x="1532" d="M68 -6v123q139 12 161 35q19 18 19 47v47q0 65 3 222t3 230q0 94 -2 195l-4 203q-2 85 -17 100q-35 28 -163 39v125l14 -2l266 -4l481 6q314 0 441 -164q153 -198 153 -526q0 -162 -48 -311.5t-126 -233.5q-73 -79 -185 -109t-333 -30q-67 0 -113 2q-34 1 -178 8 q-105 6 -170 6q-103 0 -190 -8h-12zM539 713q0 -159 2 -279l4 -268q129 -10 180 -10q183 0 266 67q129 105 129 434q0 283 -93 407t-304 124q-95 0 -178 -12v-41l-4 -224q-2 -111 -2 -198z" />
<glyph unicode="E" horiz-adv-x="1364" d="M68 -6v123q139 12 161 35q19 18 19 47v47q0 65 3 222t3 230q0 94 -2 195l-4 203q-2 85 -17 100q-35 28 -163 39v125l14 -2q127 -4 328 -4h55l745 6v-31v1l2 -128q1 -36 3 -86q2 -44 2 -57v-12h-127l-3 12q-15 94 -32 108.5t-45 14.5q-59 6 -238 6q-28 0 -94.5 -2 t-110.5 -2h-20v-15l-4 -168v-198l-2 -15q8 -2 12 -2h186l158 2q79 2 94 13q28 20 39 121h121v-15q0 -39 -1 -103t-1 -89q0 -39 2 -111t2 -106v-13h-125l-2 13q-10 62 -12 67q-12 42 -39 52q-10 4 -27 6h-53q-61 1 -152 2q-56 0 -116 -1q-66 -1 -68 -1h-18v-17l8 -446h16 q15 0 78 -1t111 -1q261 0 313 8q32 5 46.5 35.5t25.5 115.5h125v-18q0 -25 -4.5 -106.5t-4.5 -126.5q0 -39 2 -60v-12h-18l-735 6z" />
<glyph unicode="F" horiz-adv-x="1272" d="M68 -6v123l10 2q82 6 129 20q32 10 37 35q3 14 4 72q6 276 6 452q0 94 -2 195l-4 203q-2 85 -17 100q-35 28 -163 39v125l14 -2q135 -4 305 -4q204 0 470 2t329 2h16v-8l2 -99l8 -204h-127q-9 72 -19 92q-18 39 -73 45q-41 4 -254 4q-153 0 -174 -2l-20 -2v-15l-4 -176 l-2 -219h184q128 0 180 3l17 1q60 4 71 62l13 61v8h124v-12l-6 -180l4 -246h-125l-2 6q-17 97 -34 115q-21 20 -160 20h-94q-49 0 -101.5 -1t-56.5 -1h-14v-14l4 -350q0 -13 1 -29t1 -18q0 -31 16 -47q31 -24 166 -33v-125h-12q-17 0 -123 3t-195 3q-88 0 -193.5 -3 t-123.5 -3h-12z" />
<glyph unicode="G" horiz-adv-x="1479" d="M109 686q0 357 164.5 528.5t506.5 171.5q135 0 285 -10t162 -10h16v-14l2 -185l6 -182h-127l-4 12l-14 113q-6 45 -45 57q-103 33 -254 33q-207 0 -302 -123.5t-95 -392.5q0 -528 401 -528q65 0 162 14v166q0 102 -2 188q0 26 -3 76q-2 18 -12 29q-19 19 -157 39l-15 2 v125h17l303 -7l326 9v-129l-17 -2q-50 -6 -123 -19q-30 -9 -30 -67v-279q0 -183 10 -303l-19 -2q-64 -2 -311 -19q-121 -10 -209 -10q-622 0 -622 719z" />
<glyph unicode="H" horiz-adv-x="1642" d="M68 -6v123q139 12 161 35q19 18 19 47v47q0 65 3 222t3 230q0 94 -2 195l-4 203q-2 85 -17 100q-35 28 -163 39v125l14 -2q43 -6 313 -6q262 0 305 6l15 2v-125q-72 -6 -131 -27q-30 -10 -35 -32q-7 -30 -8 -132l-2 -217l18 -2q-6 0 86 -1t191 -1h65q58 0 122.5 1t70.5 1 l12 2v13l-2 204q-1 67 -4 105q0 33 -17 47q-36 31 -153 39v125l14 -2q43 -6 303 -6q273 0 316 6l14 2v-125q-134 -11 -164 -39q-14 -13 -14 -47q-1 -7 -2 -53q-6 -280 -6 -420q0 -108 2 -215l4 -215q1 -77 18 -94q30 -24 162 -33v-125h-12q-18 0 -123.5 3t-194.5 3 q-84 0 -185.5 -3t-119.5 -3h-12v123q127 10 153 35q14 12 17 47q1 19 4 262l2 198l-14 3q-1 0 -80 1t-156 1q-92 0 -191.5 -1t-105.5 -1q-14 -3 -18 -3v-18l4 -395q0 -77 20 -94q30 -27 152 -33v-125h-13q-18 0 -124 3t-195 3q-84 0 -184.5 -3t-118.5 -3h-12z" />
<glyph unicode="I" horiz-adv-x="793" d="M68 -6v123q139 12 161 35q19 18 19 47v47q0 65 3 222t3 230q0 94 -2 195l-4 203q-2 85 -17 100q-36 29 -163 39v125l14 -2q43 -6 313 -6q233 0 316 6l12 2v-125q-83 -8 -139 -27q-28 -9 -34.5 -26t-6.5 -86l-2 -203q-2 -203 -2 -211q0 -6 2 -221l2 -215q0 -77 20 -94 q27 -24 160 -33v-125h-10q-18 0 -123.5 3t-194.5 3q-87 0 -192.5 -3t-122.5 -3h-12z" />
<glyph unicode="J" horiz-adv-x="791" d="M-14 -147h10q47 0 115 18q43 12 75 43q56 54 60 231l2 103l-2 848q-1 86 -19 100q-34 28 -164 39v125l15 -2q43 -6 315 -6q230 0 316 6l12 2v-125q-78 -5 -139 -27q-28 -9 -34 -26t-7 -86l-4 -203v-444l6 -322q0 -189 -51 -277q-98 -165 -418 -165q-41 0 -70 2z" />
<glyph unicode="K" horiz-adv-x="1536" d="M68 -6v123q139 12 161 35q19 18 19 47v47q0 65 3 222t3 230q0 94 -2 195l-4 203q-2 85 -17 100q-35 28 -163 39v125l14 -2q126 -6 285 -6q160 0 286 6l13 2v-125q-34 -4 -82 -25q-27 -11 -34 -29.5t-7 -84.5l-4 -260l323 292q70 63 70 78q0 17 -37 23l-39 6h-4v125l10 -2 q120 -6 254 -6q132 0 246 6l14 2v-125q-86 -6 -135.5 -28t-124.5 -87l-239 -207q42 -46 114 -149q58 -82 121 -180q46 -72 117 -191q57 -96 102 -176q37 -65 78 -78q30 -9 127 -20v-125h-14q-70 0 -135 3t-60 3q-2 0 -67.5 -3t-129.5 -3h-18l-6 14q-70 163 -186 365 q-110 190 -232 352l-12 16l-137 -120v-17l6 -405q2 -34 16 -47q34 -27 162 -33v-125h-12q-37 0 -160 3t-189 3q-64 0 -158.5 -3t-123.5 -3h-12z" />
<glyph unicode="L" d="M68 -6v123q139 12 161 35q19 18 19 47v47q0 65 3 222t3 230q0 94 -2 195l-4 203q-2 85 -17 100q-35 28 -163 39v125l14 -2q43 -6 313 -6q233 0 316 6l12 2v-125q-78 -5 -139 -27q-28 -9 -34.5 -26.5t-6.5 -85.5l-4 -420q-1 -57 -1 -100q0 -86 3 -115q8 -96 8 -158 q0 -54 -6 -82q-4 -19 -4 -37q0 -17 14 -26h303q184 0 211 14q35 19 55 160l2 14h125v-14l-12 -168q-4 -56 -4 -121q0 -27 2 -49h-16h3l-214 3q-238 3 -504 3h-74q-103 0 -219.5 -3t-130.5 -3h-12z" />
<glyph unicode="M" horiz-adv-x="1964" d="M61 -6v123q44 2 101 12q43 8 57.5 21t18.5 47q11 122 16 272q12 381 12 612v62q0 41 -16 55q-18 20 -150 39l-14 2v121l16 -2q50 -6 226 -6q168 0 211 6l14 2l6 -12l424 -701l12 21q40 65 207 344q156 261 191 327l10 21l20 -2q62 -6 236 -6q158 0 207 6l16 2v-125h-16 q-121 0 -150 -35q-16 -20 -16 -121q0 -10 1 -60q2 -63 3 -114l16 -643q2 -31 4 -65q4 -42 33 -54q39 -16 146 -24v-125h-17q-29 0 -135 3t-182 3q-73 0 -174 -3t-129 -3h-15v123q138 9 162 39q19 23 19 221q0 180 -2 276l-7 387l-12 -20q-43 -67 -158 -254l-219 -367 l-207 -2l-8 15q-48 86 -172 299q-73 120 -174 293l-18 34l-2 -37l-11 -651q0 -145 9 -170q6 -30 45 -43q34 -11 112 -18h19v-125h-17q-34 0 -118 3t-134 3t-142.5 -3t-135.5 -3h-19z" />
<glyph unicode="N" horiz-adv-x="1651" d="M68 -6v123q91 10 135 20q31 7 39 35q5 20 6 68l6 510q0 184 -4 337q-2 63 -6 82q-6 26 -39 37q-62 21 -137 29v125l14 -2q43 -6 213 -6q174 0 223 6l17 2l6 -12l159 -254l506 -777v156l-2 195v239q0 141 -2 196.5t-6 67.5q-7 36 -160 62l-12 2v125l12 -2q80 -6 260 -6 q193 0 273 6l12 2v-125l-12 -2q-126 -21 -150 -39q-20 -15 -24.5 -58.5t-5.5 -230.5l-3 -241l9 -670h-291l-8 12l-170 270l-164 252q-93 144 -150 228l-172 258l-2 -35v-123l-2 -190v-213l4 -213q2 -70 17 -86q26 -29 166 -35v-125h-13q-22 0 -124.5 3t-163.5 3 q-62 0 -142 -3t-100 -3h-12z" />
<glyph unicode="O" horiz-adv-x="1518" d="M109 664q0 443 208 610q144 115 445 115q349 0 502 -179q145 -168 145 -532q0 -430 -209 -598q-140 -113 -442 -113q-303 0 -443 113q-206 167 -206 584zM410 690q0 -301 76.5 -418.5t273.5 -117.5q193 0 270.5 116t77.5 408q0 290 -77.5 406t-272.5 116 q-192 0 -270 -114.5t-78 -395.5z" />
<glyph unicode="P" horiz-adv-x="1409" d="M68 -6v123q138 13 161 35q19 17 19 47v47q0 69 3 224.5t3 227.5q0 94 -2 195l-4 203q-2 85 -17 100q-24 19 -149 37l-14 2v125l14 -2q14 0 147 -2l181 -2l213 8q106 4 147 4q189 0 315 -37q105 -30 166.5 -133t61.5 -248q0 -253 -185 -350q-124 -66 -368 -66 q-30 0 -102 3.5t-107 3.5h-12v-13q2 -14 2 -125q0 -177 2 -202q2 -32 18 -47q31 -24 162 -33v-125h-10q-18 0 -123.5 3t-194.5 3q-87 0 -192.5 -3t-122.5 -3h-12zM539 713q28 -4 86 -6q98 -5 106 -5q155 0 219 54t64 186q0 136 -66 193t-223 57q-122 0 -182 -8v-117l-4 -195 v-159z" />
<glyph unicode="Q" horiz-adv-x="1524" d="M109 674q0 430 208 600q142 115 445 115q302 0 444 -115q207 -166 207 -596q0 -666 -498 -703l29 -12q142 -55 432 -170l21 -8l-82 -182l-21 10l-299 160q-280 149 -417 149q-105 0 -193 -76l-74 105q38 42 99 74q-301 130 -301 649zM410 690q0 -303 77 -419.5 t277 -116.5q195 0 272.5 115.5t77.5 408.5q0 291 -78 406.5t-276 115.5q-195 0 -272.5 -113t-77.5 -397z" />
<glyph unicode="R" horiz-adv-x="1505" d="M68 -6v123q139 12 161 35q19 18 19 47v47q0 65 3 222t3 230q0 94 -2 195l-4 203q-2 85 -17 100q-36 29 -163 39v125l14 -2q135 -4 223 -4q60 0 205 4l194 5q99 3 140 3q263 0 381 -109q104 -96 104 -264q0 -300 -299 -360q8 -10 70 -103l78 -116q17 -26 57 -92 q13 -23 53 -82l25 -37q39 -59 78 -68q46 -10 114 -16v-125h-14q-39 0 -104 3t-91 3q-23 0 -89 -3t-107 -3h-17l-6 12q-14 24 -67 121l-88 162q-34 61 -195 303l-8 12l-180 4l2 -22v-125l4 -215q1 -77 18 -94q30 -24 160 -33v-125h-10q-18 0 -123.5 3t-194.5 3 q-87 0 -192.5 -3t-122.5 -3h-12zM539 772h16l82 -4h33q121 0 204 16q152 30 152 199q0 112 -65.5 160.5t-219.5 48.5q-106 0 -196 -8v-21z" />
<glyph unicode="S" horiz-adv-x="1270" d="M96 373v14h119l2 -12q16 -95 22 -119q8 -34 21 -45q20 -17 74 -29q134 -28 254 -28q134 0 212.5 56t78.5 152q0 76 -54 122t-186 81l-262 72q-89 27 -156 82q-110 91 -110 268q0 399 528 399q70 0 213 -12q138 -12 203 -12h16v-14v4l4 -162l4 -201h-125l-2 15 q-3 24 -8 63q-13 89 -67 104q-100 29 -226 29q-258 0 -258 -170q0 -90 80 -133q55 -29 264 -82q151 -38 219 -69t121 -84q97 -98 97 -259q0 -220 -170 -335q-149 -101 -431 -101q-131 0 -249 19l-119 18l-99 12q0 15 1.5 34.5t1.5 31.5q0 62 -5 131q-8 137 -8 160z" />
<glyph unicode="T" horiz-adv-x="1171" d="M23 1008l3 31q6 59 7 149l2 174h14q7 0 182.5 -4t343.5 -4q176 0 358.5 4t188.5 4h15v-16q0 -91 2 -142q3 -35 5 -71q5 -58 5 -111v-14h-125q0 12 -2 14q-13 87 -29 135q-9 29 -45 35q15 0 -33 2q-29 2 -73 4l-111 2q-2 -33 -2 -90v-14q0 -19 -2 -203l-2 -217 q0 -108 2 -215l4 -215q2 -79 19 -94q25 -24 161 -33v-125h-12q-18 0 -123 3t-192 3q-88 0 -193.5 -3t-122.5 -3h-12v123q78 7 135 20q33 8 39 37q6 17 6 72l2 850q0 67 -4 102h-14l-98 -2l-80 -4q-53 -3 -64 -31q-16 -43 -28 -153h-127z" />
<glyph unicode="U" horiz-adv-x="1638" d="M68 1235v125l14 -2q43 -6 313 -6q233 0 316 6l12 2v-125q-83 -8 -139 -27q-28 -9 -34.5 -26t-6.5 -86l-4 -447q0 -199 4.5 -256t23.5 -98q64 -135 289 -135q223 0 293 135q21 41 27 82q8 60 8 258v41q0 116 -2 217l-4 203q-2 85 -19 100q-33 29 -162 39v125l15 -2 q43 -6 274 -6q184 0 270 6l13 2v-125q-93 -9 -139 -27q-28 -10 -34 -26.5t-7 -85.5l-5 -203l2 -461v-14q0 -152 -42 -234q-44 -86 -154 -143q-143 -74 -377 -74q-252 0 -397 84q-97 56 -130.5 132.5t-33.5 236.5v33q0 12 1 72.5t1 107.5v43q0 116 -2 217l-4 203 q-2 85 -17 100q-36 29 -163 39z" />
<glyph unicode="V" horiz-adv-x="1489" d="M8 1235v125l12 -2q114 -6 291 -6q285 0 334 6l17 2v-125l-17 -2q-94 -12 -119 -19q-30 -9 -30 -28q0 -16 10 -49q42 -139 129 -418l72 -223q38 -121 86 -250l12 30l147 449q28 86 70 221l53 174q12 37 12 56q0 33 -67 47l-90 10l-17 2v125l13 -2q116 -6 264 -6 q145 0 274 6l15 2v-125h-15q-105 0 -133 -23q-18 -15 -121 -301l-110 -309q-144 -403 -199 -594l-4 -14h-307l-4 14l-201 602l-115 322q-88 247 -102 262q-39 41 -145 41h-15z" />
<glyph unicode="W" horiz-adv-x="2179" d="M8 1235v125l15 -2q119 -6 307 -6q190 0 319 6l15 2v-125h-17q-68 0 -114 -19q-41 -17 -41 -38q0 -11 4 -27l10 -41l112 -446q35 -139 93 -349q2 -10 8 -36q4 14 10 34q19 67 72 271l192 776h287l4 -17l264 -1064l8 34l187 727q31 121 31 136q0 41 -172 59v125l14 -2 q129 -6 264 -6q225 0 274 6l17 2v-125q-6 0 -12.5 -1t-8.5 -1q-49 -6 -57 -6q-14 -2 -45 -8q-36 -10 -47.5 -25.5t-32.5 -85.5l-61 -207l-252 -907h-303l-4 12l-256 1024l-11 -37l-264 -999h-299l-4 14l-72 277q-24 86 -84 303l-71 256q-38 132 -92 303q-14 43 -30 56.5 t-61 21t-96 10.5z" />
<glyph unicode="X" horiz-adv-x="1444" d="M45 -6v123q101 11 145 30q33 15 76 74q28 38 59 82l6 8q102 144 236 346l8 13l-8 14l-145 213q-79 116 -191 270q-18 22 -36 34q-37 21 -132 32l-18 2v125l10 -2q102 -6 252 -6q183 0 322 6l8 2v-125q3 0 -8 -2q-82 -17 -82 -41q0 -18 39 -78q45 -71 139 -207l6 -8l6 8 l166 254q10 17 10 25q0 35 -88 49v125l13 -2q116 -6 221 -6q192 0 241 6l17 2v-125l-17 -2l-67 -8q-45 -6 -65 -21t-62 -78l-121 -178l-147 -213l10 -12l184 -274q127 -189 169 -241.5t80.5 -66.5t127.5 -24v-123h-18q-40 0 -140.5 3t-160.5 3t-155.5 -3t-131.5 -3h-10v123 q108 6 108 43q0 14 -24 53l-97 152l-96 145l-10 -16l-180 -281q-23 -35 -23 -53q0 -32 109 -41v-125h-11q-22 0 -98 3t-129 3q-61 0 -154.5 -3t-126.5 -3h-16z" />
<glyph unicode="Y" horiz-adv-x="1374" d="M0 1235v125l12 -2q117 -6 295 -6q183 0 309 6l13 2v-125l-15 -2q-133 -19 -133 -41q0 -21 27 -68l227 -397l15 25l114 194l56 98q23 40 53 93q18 37 18 53q0 34 -131 45v125l10 -2q114 -6 234 -6q121 0 256 6l14 2v-125l-71 -10q-45 -7 -61.5 -16t-37.5 -42l-30 -47 l-353 -575l2 -131q1 -90 4 -215q3 -34 19 -47q27 -24 160 -33v-125h-13q-17 0 -122.5 3t-192.5 3q-89 0 -194 -3t-122 -3h-12v123q138 13 162 35q13 12 16.5 48t6.5 214l2 141l-7 10q-36 68 -159 283l-78 131l-78 127l-35 53q-19 30 -33 43q-23 19 -133 31q-13 2 -14 2z" />
<glyph unicode="Z" horiz-adv-x="1253" d="M86 -6v145l10 15l176 254q43 61 187 276q104 153 311 473l16 27l-417 -2q-44 -1 -58 -4q-32 -7 -43 -33q-17 -45 -30 -158h-127l2 17q8 65 8 260v96l22 -2q68 -6 500 -6h64q354 0 409 6l19 2v-141l-13 -17q-56 -75 -172 -241q-193 -279 -358 -533l-172 -266q67 -2 223 -2 q186 0 236 2l49 2q68 3 84 45q19 50 30 145h125v-16l-8 -168l-2 -176h-18q-2 0 -173.5 3t-340.5 3h-127q-116 0 -249 -3t-151 -3h-12z" />
<glyph unicode="[" horiz-adv-x="649" d="M80 -322l10 928l-10 942h489v-135l-16 2q-16 2 -92 2q-53 0 -94 -2l-15 -2q-1 -10 -2 -22q-3 -78 -6 -355l-4 -432l4 -438q3 -266 6 -350q0 -3 2 -19q103 -4 125 -4q19 0 92 4v-135h-489v16z" />
<glyph unicode="\" horiz-adv-x="649" d="M-84 1386h162l655 -1417h-164z" />
<glyph unicode="]" horiz-adv-x="649" d="M78 -203q78 -4 98 -4q15 0 49 1t49 1l23 2q0 13 2 19q1 19 4 350l4 438l-8 787q-2 14 -2 22l-16 2q-17 2 -95 2q-75 0 -92 -2l-16 -2v135h491v-14v-1872h-491v135z" />
<glyph unicode="^" horiz-adv-x="512" d="M139 580l99 96l-99 96l21 21l96 -97l96 97l21 -21l-99 -96l99 -96l-21 -19l-96 96l-96 -96z" />
<glyph unicode="_" d="M0 -170h1298v-123h-1298v123z" />
<glyph unicode="`" horiz-adv-x="711" d="M76 1423h332l229 -270h-195z" />
<glyph unicode="a" horiz-adv-x="1200" d="M55 309q0 165 95 252q110 103 403 103q53 0 88 -2l70 -5h14v25q0 114 -41 147q-58 48 -190 48q-151 0 -193 -25q-25 -15 -33 -109h-121l3 9q4 47 10 140.5t6 111.5v12l16 2q30 0 180 12q126 10 222 10q198 0 298 -69q97 -67 97 -226v-10l-4 -246l4 -241q0 -12 1 -29 t1 -22q0 -35 18 -54q27 -20 158 -32l2 -117h-10q-32 0 -89 3t-81 3q-20 0 -81.5 -3t-102.5 -3h-17q0 4 -8 125l-2 33q-86 -185 -338 -185q-375 0 -375 342zM313 317q0 -87 49 -137.5t134 -50.5q106 0 161 74q36 47 54 127q12 50 12 168v16l-16 2l-70 4h-39q-285 0 -285 -203 z" />
<glyph unicode="b" horiz-adv-x="1319" d="M41 -6v117l16 2q108 13 138 32q23 16 24 109l2 883q0 131 -14 143q-24 27 -166 37v115h16q246 0 435 32v-20l-7 -240l-2 -231q133 67 267 67q224 0 342 -130t118 -378q0 -148 -50 -279.5t-134 -201.5q-100 -84 -285 -84q-240 0 -301 154q-5 -69 -18 -127h-10 q-39 0 -98.5 3t-80.5 3q-23 0 -82.5 -3t-95.5 -3h-14zM483 418q0 -153 47 -217q54 -74 164 -74q244 0 244 388q0 364 -268 364q-105 0 -187 -56v-405z" />
<glyph unicode="c" horiz-adv-x="1047" d="M84 489q0 148 47.5 272t128.5 187q116 90 350 90q89 0 146 -4l166 -12q-2 -23 -2 -49q0 -154 10 -260v-19h-121q-6 100 -23 142q-21 38 -145 38q-146 0 -207 -73q-76 -92 -76 -281q0 -383 283 -383q129 0 291 72v-186q-166 -56 -367 -56q-211 0 -323 94 q-158 132 -158 428z" />
<glyph unicode="d" horiz-adv-x="1298" d="M84 502q0 255 119.5 394.5t337.5 139.5q157 0 270 -53v21l-2 133v96q0 49 -37 61q-50 17 -143 23v115h16q248 0 436 32l-2 -20q0 -8 -4 -256l-4 -711q0 -63 1 -137t1 -86q0 -61 6 -82q8 -25 39 -36q27 -10 123 -23l14 -2l2 -117h-16q-54 0 -119.5 3t-77.5 3q-29 0 -87 -3 t-87 -3h-18v12q-1 21 -4 60v59l-2 22q-16 -48 -33 -75q-69 -107 -281 -107q-215 0 -331.5 139.5t-116.5 397.5zM358 502q0 -369 244 -369q111 0 159.5 71t49.5 232l2 398q-89 43 -182 43q-134 0 -195 -76q-78 -98 -78 -299z" />
<glyph unicode="e" horiz-adv-x="1161" d="M84 500q0 538 524 538q283 0 383 -156q53 -84 53 -261q0 -62 -2 -103h-20q-14 0 -124 2t-206 2q-93 0 -200 -2t-121 -2h-21q3 -192 70 -278q79 -103 252 -103q177 0 344 82v-194q-186 -56 -412 -56q-520 0 -520 531zM356 664q6 0 14 -1t10.5 -1t66.5 -1.5t124 -1.5h37 q48 0 103 1.5t61 1.5q2 0 7 1t9 1q0 69 -8 100q-31 115 -196 115q-201 0 -228 -215z" />
<glyph unicode="f" horiz-adv-x="760" d="M41 -6v117l16 2q104 13 138 32q23 14 24 109l4 598h-10l-109 -2v137q31 -2 78 -2h41v21l-2 141q0 156 70 229q50 54 146 70q50 8 165 8h191q-7 -37 -7 -90q0 -100 15 -229l2 -19h-123q-20 125 -31 150.5t-55 25.5q-54 0 -86 -39q-37 -44 -37 -249v-19h23h-3l123 2l136 2 q6 0 14 2l-16 -145h-15q-51 0 -125.5 3t-105.5 3h-27v-14l4 -273q1 -56 4 -219q2 -79 2 -125q0 -65 30 -80t134 -28l17 -2v-117h-17q-33 0 -134 3t-169 3q-66 0 -163 -3t-128 -3h-14z" />
<glyph unicode="g" horiz-adv-x="1190" d="M61 -170q0 108 48 174q39 55 147 94q-35 67 -35 135q0 56 25 127q-160 79 -160 295q0 387 465 387q95 0 184 -12l119 -16q59 -8 123 -8q34 0 50 17q11 11 24 50h118l-22 -217q-27 -4 -64 -4q-46 0 -102 10q86 -75 86 -213q0 -362 -475 -362q-90 0 -184 18q-7 -20 -7 -43 q0 -100 128 -100h10l223 6h22q170 0 256 -72q88 -73 88 -219q0 -356 -550 -356q-268 0 -392.5 74.5t-124.5 234.5zM295 -154q0 -165 278 -165q301 0 301 147q0 121 -178 121h-10l-149 -2q-86 0 -154 24q-88 -27 -88 -125zM350 672q0 -120 54 -174t174 -54q119 0 172 50.5 t53 162.5q0 125 -52.5 178.5t-175.5 53.5q-119 0 -172 -51t-53 -166z" />
<glyph unicode="h" horiz-adv-x="1389" d="M41 -6v117l16 2q104 13 140 32q21 17 22 109v979q-1 50 -35 61q-50 17 -143 23v115h16q246 0 435 32v-20q0 -22 -3 -102q-3 -87 -4 -152l-2 -246q46 32 76 47q90 47 242 47q143 0 248 -57q60 -33 88 -88q34 -70 34 -244q0 -37 -2 -55l-4 -266q0 -152 13 -170 q14 -32 151 -47l19 -2v-117h-15q-43 0 -110 2t-93 2q-106 0 -204 -2l-17 -2q-8 98 -8 246q0 36 4 202q2 83 2 160q0 99 -10 148q-27 126 -197 126q-120 0 -170.5 -54.5t-50.5 -184.5v-14l4 -144l2 -223q1 -87 19 -104q21 -22 151 -39v-117h-16q-35 0 -142 3t-180 3 q-61 0 -148.5 -3t-113.5 -3h-14z" />
<glyph unicode="i" horiz-adv-x="709" d="M41 -6v117l16 2q113 14 138 32q23 12 24 109l2 129l-2 424q0 41 -23.5 52t-138.5 26l-16 2v114h16q245 0 435 31v-20q0 -15 -3 -75q-3 -72 -4 -126l-4 -213l2 -195q1 -104 6 -229q6 -28 37 -39q23 -8 125 -22q8 0 17 -2v-117h-17q-33 0 -135 3t-170 3q-66 0 -163 -3 t-128 -3h-14zM213 1315q0 158 145 158q142 0 142 -154q0 -158 -146 -158q-141 0 -141 154z" />
<glyph unicode="j" horiz-adv-x="676" d="M-55 -315l14 2q156 22 202 82.5t46 255.5q0 46 1 118t1 99l-4 563q-1 44 -27 55q-40 17 -151 27v114h16q238 0 432 31v-18l-6 -256l-2 -195l-2 -170v4q0 -69 1 -197t1 -149v-45q0 -134 -11 -197q-20 -110 -83 -174q-103 -102 -346 -102q-2 0 -68 4zM197 1315 q0 158 145 158q141 0 141 -154q0 -156 -145 -156q-141 0 -141 152z" />
<glyph unicode="k" horiz-adv-x="1329" d="M41 -6v117l16 2q108 13 138 32q23 16 24 109l2 883q0 131 -14 143q-24 27 -166 37v115h16q246 0 435 32v-20q0 -61 -4.5 -278.5t-4.5 -313.5v-207l199 180q16 15 37 33q10 10 10 19q0 10 -70 24l-20 4v117h16q45 0 136.5 -3t138.5 -3t135.5 3t130.5 3h16v-117 q-203 -24 -274 -84l-133 -110q93 -118 225 -355l68 -120q39 -70 70 -90q35 -23 132 -33l19 -2v-117h-12q-47 0 -112 3t-83 3q-25 0 -84.5 -3t-93.5 -3h-14l-7 14q-10 17 -54 106l-11 23q-124 251 -238 418l-127 -106v-150l2 -78q2 -62 26 -78t140 -30l17 -2v-117h-17 q-33 0 -135 3t-170 3q-66 0 -163 -3t-128 -3h-14z" />
<glyph unicode="l" horiz-adv-x="709" d="M41 -6v117l16 2q108 13 138 32q23 16 24 109l2 883q0 131 -14 143q-24 27 -166 37v115h16q246 0 435 32v-20q0 -55 -6 -300q-5 -235 -5 -351l2 -316q2 -279 8.5 -305t32.5 -35q27 -12 127 -24l17 -2v-117h-17q-33 0 -135 3t-170 3q-66 0 -163 -3t-128 -3h-14z" />
<glyph unicode="m" horiz-adv-x="1999" d="M41 -6v117l16 2q113 14 138 32q23 12 24 109l2 129l-2 424q0 41 -23.5 52t-138.5 26l-16 2v114h16q235 0 381 27l23 4l-4 -127q88 131 319 131q112 0 189 -28q68 -26 120 -95q92 123 322 123q173 0 272 -65q101 -67 101 -241v-7l-4 -317q0 -154 4 -226q1 -26 14 -37 q28 -24 164 -32v-117h-16q-65 0 -133.5 3t-73.5 3q-12 0 -77.5 -3t-119.5 -3h-20q-7 41 -7 121v24l5 271q2 135 2 215v32q0 66 -13 111q-28 104 -180 104q-159 0 -184 -110q-13 -55 -13 -336q0 -26 1 -68.5t1 -58.5v-76q0 -79 33 -90q47 -15 148 -22v-117h-19 q-42 0 -136.5 3t-145.5 3q-53 0 -140 -3t-120 -3h-11v117q86 3 111 26q17 16 18 62q2 57 2 94v350q0 135 -49 184q-45 45 -139 45q-89 0 -138 -39.5t-60 -126.5q-3 -24 -3 -145v-24l2 -134v-149q0 -89 19 -104q27 -30 108 -39v-117h-14q-31 0 -121.5 3t-148.5 3t-148 -3 t-123 -3h-14z" />
<glyph unicode="n" horiz-adv-x="1393" d="M41 -6v117l16 2q113 14 138 32q23 12 24 109l2 129l-2 424q0 41 -23.5 52t-138.5 26l-16 2v114h16q200 0 398 31l-4 -106q106 112 340 112q73 0 157 -16q65 -13 119 -49q109 -75 109 -250v-16l-7 -215l7 -312q2 -26 18 -35q37 -19 141 -32l17 -2v-117h-17q-54 0 -125.5 3 t-87.5 3q-27 0 -91 -3t-101 -3h-17q0 8 -2 12q-2 27 -4 121l-2 104q0 26 4 209q2 82 2 156q0 92 -12 152q-26 124 -197 124q-64 0 -106 -14q-48 -16 -78 -59q-37 -53 -37 -185v-16q2 -18 2 -195v-149q0 -55 6 -80q7 -28 37 -39q23 -8 125 -22q8 0 17 -2v-117h-17 q-33 0 -135 3t-170 3q-66 0 -163 -3t-128 -3h-14z" />
<glyph unicode="o" horiz-adv-x="1243" d="M84 498q0 282 128.5 413t405.5 131q266 0 391.5 -131.5t125.5 -410.5q0 -533 -531 -533q-520 0 -520 531zM356 518q0 -207 59.5 -298t194.5 -91q134 0 193 88t59 287q0 198 -61 287.5t-195 89.5q-132 0 -191 -86t-59 -277z" />
<glyph unicode="p" horiz-adv-x="1294" d="M29 -348l12 2l96 14q33 5 48.5 22t17.5 111q0 37 4 179q4 151 4 247l-2 541q0 27 -6 63q-3 12 -17 19q-35 19 -139 31l-18 2v112h18q189 0 389 29l15 2l-5 -111q76 123 297 123q443 0 443 -524q0 -352 -209 -487q-98 -64 -256 -64q-108 0 -167.5 29.5t-94.5 101.5l4 -299 q1 -78 12 -100q18 -27 148 -41l18 -2v-119l-16 2q-50 6 -310 6q-221 0 -270 -6l-16 -2v119zM461 410q0 -137 39 -197q54 -84 176 -84q237 0 237 385q0 360 -251 360q-124 0 -195 -90z" />
<glyph unicode="q" horiz-adv-x="1260" d="M82 469q0 323 184 473q116 94 334 94q79 0 150 -6l141 -12q71 -6 113 -6q94 0 143 8l12 2v-117q-4 -1 -10 -4q-66 -18 -74 -39q-6 -9 -6 -24v-58l-6 -241q-2 -81 -2 -232q0 -55 1 -136.5t1 -109.5v-241q0 -106 14 -125q21 -28 140 -43l16 -2v-117l-16 2q-33 4 -310 4 q-239 0 -268 -4l-14 -2v115l12 2q101 17 135 28q27 10 29 52l2 65l8 303q-75 -137 -293 -137q-436 0 -436 508zM354 485q0 -356 234 -356q223 0 223 321v11l-4 387q-83 29 -178 29q-143 0 -209 -94t-66 -298z" />
<glyph unicode="r" horiz-adv-x="879" d="M41 -6v117l16 2q113 14 138 32q23 12 24 109l2 129l-2 424q0 41 -23.5 52t-138.5 26l-16 2v114h16q237 0 400 31v-184q76 194 252 194q60 0 125 -24v-55q0 -29 4 -105.5t4 -159.5v-18h-119l-2 12l-16 101q-9 53 -56 53q-70 0 -118 -95.5t-48 -310.5v-186q0 -86 19 -104 q21 -21 149 -37l17 -2v-117h-17q-33 0 -135 3t-170 3q-66 0 -163 -3t-128 -3h-14z" />
<glyph unicode="s" horiz-adv-x="1040" d="M82 10v17l2 114l-2 146h121q6 -93 20 -111q8 -8 37 -16q105 -31 203 -31q209 0 209 133q0 64 -54 96q-35 22 -149 54q-220 61 -289 116q-90 73 -90 203q0 141 105 223t286 82q189 0 369 -22l16 -2v-13l-2 -120l4 -148h-120q-8 91 -25 105q-7 10 -45 18q-84 18 -143 18 q-181 0 -181 -102q0 -37 21 -59q34 -38 229.5 -82.5t269.5 -128.5q70 -78 70 -195q0 -184 -153 -272q-111 -64 -330 -64q-110 0 -191 13z" />
<glyph unicode="t" horiz-adv-x="805" d="M59 877v141h15l45 -2h47l18 -2v20l-4 211l264 62v-21q0 -11 -2 -57t-2 -80v-115l-2 -20h43q79 0 248 6l16 2l-16 -148h-18l-129 5h-144l2 -502q0 -88 11 -141q18 -97 131 -97q53 0 143 25v-152q-132 -43 -252 -43q-295 0 -295 248v10l4 164l4 488l-18 -2h-109z" />
<glyph unicode="u" horiz-adv-x="1372" d="M25 889v115h12q7 0 21.5 -1.5t23.5 -1.5q260 0 383 27v-16l-2 -209v-268l4 -177q3 -128 45.5 -178.5t149.5 -50.5t159.5 59.5t66.5 160.5q7 46 7 177v29l-2 246q0 36 -16 49q-19 15 -142 35l-16 4v115h10q13 0 40 -1.5t40 -1.5q184 0 350 27v-16l-4 -213q-2 -107 -2 -215 q0 -126 6 -363q1 -46 10 -63q11 -20 35 -29q61 -15 127 -18v-117h-16q-58 0 -124.5 3t-74.5 3q-21 0 -79 -3t-95 -3h-16q-6 37 -6 63v76q-95 -166 -340 -166q-174 0 -275 60q-54 32 -76 84q-28 69 -28 256q0 70 2 145t2 209v70v6q0 38 -10.5 50t-51.5 19l-102 19z" />
<glyph unicode="v" horiz-adv-x="1186" d="M-8 905v117h8q49 -8 197 -8h-2l73 2q172 4 269 4l16 2v-117q-121 -13 -121 -49q0 -19 19 -76l81 -254l103 -297l6 19q44 126 100 287q16 47 80 245q5 17 15 41q6 22 6 35q0 36 -119 49v117h12q21 0 92 -3t121 -3q119 0 234 4l12 2v-117l-10 -2q-45 -6 -113 -20 q-23 -8 -39 -47l-20 -52q-17 -42 -72 -190l-215 -600h-268q-2 8 -2 14l-146 408q-41 116 -67 186l-66 174q-28 76 -41 86q-22 18 -131 39q-2 1 -6 2t-6 2z" />
<glyph unicode="w" horiz-adv-x="1788" d="M-8 905v117h8q55 -8 215 -8q10 0 29.5 1t29.5 1q277 0 310 4l16 2v-117q-6 -2 -12 -2q-119 -25 -139 -35q-17 -5 -17 -20q0 -10 17 -74q9 -39 71 -244q36 -116 84 -270l8 -27l9 25l55 195l53 174l59 213q19 64 50 182h196l2 -12l45 -172q22 -83 121 -420l5 -18l50 -167 l7 17q4 11 86 280l71 240q6 20 12.5 42t6.5 34q0 22 -33 32q-24 8 -125 25l-12 2v117h12q19 0 102 -3t148 -3q145 0 252 4l12 2v-117l-10 -2q-45 -8 -107 -22q-26 -6 -37.5 -25.5t-37.5 -93.5q-18 -46 -70 -193q-17 -50 -64 -188l-127 -387h-266l-2 14l-35 123l-49 164 l-45 160l-53 178l-8 -29l-178 -610h-269l-2 8q-16 39 -53 164q-23 80 -72 219l-151 440q-4 6 -10 21q-15 33 -58 41z" />
<glyph unicode="x" horiz-adv-x="1192" d="M33 -6v117q78 7 117 18q26 8 48 30t52 62l108 146q38 50 91 122q2 4 10 15l-10 12q-14 21 -95 131q-90 124 -135 182q-21 28 -31 35q-21 13 -47 19l-84 18l-14 4v117h14q23 0 98.5 -3t127.5 -3q57 0 141.5 3t112.5 3h14v-117q-55 -12 -55 -33q0 -16 26 -53l31 -43 q16 -26 47 -67q1 -1 4 -7l4 5q4 6 47 67l33 47q25 35 25 47q0 22 -51 37v117h12q26 0 92 -3t106 -3q86 0 201 4l14 2v-117l-10 -2l-61 -8q-39 -5 -65 -19t-74 -79l-175 -236q7 -8 11 -12q28 -40 131 -180q5 -9 104 -142q13 -17 35 -49q18 -20 35 -33q24 -17 141 -34v-117 h-14q-30 0 -113 3t-137 3t-141.5 -3t-120.5 -3h-17v117q82 5 82 34q0 9 -10 27q-15 26 -61 92l-70 101l-12 -17l-101 -141q-26 -37 -26 -62q0 -29 71 -34v-117h-14q-37 0 -104.5 3t-98.5 3q-24 0 -98 -3t-123 -3h-18z" />
<glyph unicode="y" horiz-adv-x="1200" d="M-8 905v117h12q16 0 106 -3t164 -3q166 0 269 4l14 2v-117q-127 -19 -127 -51q0 -13 6 -33l15 -45q21 -68 88 -262l43 -119l59 -168l6 23l139 395q23 64 41 121q8 21 17 49q6 21 6 35q0 22 -21 29q-33 15 -102 26v117h10q68 -6 215 -6q178 0 258 6v-117 q-120 -16 -141 -37q-12 -12 -29 -51q-40 -96 -125 -330l-106 -294l-115 -328l-110 -332h-17q-45 0 -91.5 3t-47.5 3q-6 0 -54 -3t-91 -3h-15v115l13 2q59 9 135 26q19 10 41 68l51 135l-6 17l-72 213l-156 428q-40 111 -88 233q-21 55 -34 84q-9 18 -31 25q-9 2 -119 24z " />
<glyph unicode="z" horiz-adv-x="1077" d="M45 -6v106l10 11q41 51 150 192q64 83 147 193l262 358h-22l-156 2l-86 -2q-95 -2 -106 -10q-18 -13 -33 -146l-2 -18h-121v18l8 158q2 39 2 86q0 45 -2 80h19q14 0 187.5 -3t279.5 -3q227 0 354 4l14 2v-127l-10 -12l-270 -353q-63 -89 -267 -358l-14 -18l27 -2l223 -2 q102 0 152 4q33 2 45 22q20 30 32 148h119v-17l-8 -141q-2 -35 -2 -78q0 -51 2 -94h-18q-26 0 -172 3t-267 3q-126 0 -278.5 -3t-180.5 -3h-18z" />
<glyph unicode="{" horiz-adv-x="805" d="M164 606v70q180 54 180 307q0 57 -10 129q-21 143 -21 182q0 147 82 219q77 68 279 68h20v-72q-162 -11 -162 -166q0 -40 19 -167q10 -71 10 -154q0 -152 -66 -251.5t-186 -127.5q256 -75 256 -424q0 -67 -10 -145q-20 -157 -20 -183q0 -153 161 -159v-70q-26 -2 -53 -2 q-328 0 -328 262q0 52 21 199q12 88 12 174q0 258 -184 311z" />
<glyph unicode="|" horiz-adv-x="649" d="M262 -61v1474h123v-1474h-123z" />
<glyph unicode="}" horiz-adv-x="805" d="M109 -268q161 6 161 159q0 26 -20 183q-10 78 -10 145q0 349 256 424q-120 28 -186 127.5t-66 251.5q0 83 10 154q18 127 18 167q0 155 -161 166v72h22q85 0 152 -12q207 -38 207 -275q0 -35 -21 -182q-10 -73 -10 -127q0 -255 180 -309v-70q-184 -53 -184 -311 q0 -86 12 -174q20 -147 20 -199q0 -262 -327 -262q-25 0 -53 2v70z" />
<glyph unicode="~" horiz-adv-x="512" d="M139 580l99 96l-99 96l21 21l96 -97l96 97l21 -21l-99 -96l99 -96l-21 -19l-96 96l-96 -96z" />
<glyph unicode="&#xa1;" horiz-adv-x="803" d="M86 -225h14q131 16 152 35q16 13 18 96l19 647h223l18 -647q2 -52 3 -58q6 -36 28 -46q27 -13 139 -27h15v-123l-13 2q-82 6 -301 6q-258 0 -301 -6l-14 -2v123zM252 883q0 155 143 155q140 0 140 -151q0 -158 -140 -158q-143 0 -143 154z" />
<glyph unicode="&#xa2;" d="M223 813q0 308 178 449q79 62 269 86l16 2v217h88v-215h14q31 0 109 -6q104 -9 141 -9l23 -2v-49q0 -186 8 -260l2 -18h-121l-2 16l-8 76q-7 66 -49 78q-49 8 -98 8h-19v-737q149 3 299 71v-186q-130 -43 -299 -55v-365h-88v362q-97 8 -172 31q-137 43 -214 177t-77 329z M498 829q0 -166 53 -264q41 -75 135 -104v715q-188 -36 -188 -347z" />
<glyph unicode="&#xa3;" d="M100 -6q76 93 150 395l65 268h-14l-123 -2v146h19l147 -2q5 20 25 102q42 185 94 277q114 200 405 200q75 0 181 -10l108 -10q14 0 27 -2q0 -16 -1 -34t-1 -28q0 -120 10 -243l2 -25h-123l-2 12l-8 68q-9 68 -44 89q-26 15 -99 15q-117 0 -179 -59q-32 -31 -51 -72 q-6 -13 -78 -264l-4 -14l19 -2q18 -2 206 -2q150 0 164 2l15 2v-144h-17q-13 0 -77 1t-115 1q-57 0 -126 -1t-81 -1h-19l-4 -16q-11 -45 -51 -221q-17 -77 -57 -238l-6 -22q131 -4 190 -4q14 0 38 1q28 1 38 1l276 4q21 1 31 6q29 22 43 158q2 2 2 16h121v-18l-10 -146 l-2 -184h-19q-31 0 -181 3t-269 3q-163 0 -360 -3t-232 -3h-23z" />
<glyph unicode="&#xa4;" horiz-adv-x="1536" d="M246 274l116 117q-104 136 -104 311q0 190 104 312l-116 114l94 95l115 -117q125 108 309 108q187 0 313 -108l115 117l92 -93l-117 -116q113 -127 113 -312q0 -178 -113 -311l117 -117l-90 -92l-121 121q-118 -106 -309 -106q-184 0 -311 102l-117 -117zM426 702 q0 -146 104 -247q99 -97 234 -97q139 0 241.5 98.5t102.5 245.5t-101.5 246t-242.5 99q-134 0 -234 -98q-104 -101 -104 -247z" />
<glyph unicode="&#xa5;" d="M31 1235v125l10 -2q101 -6 270 -6q178 0 289 6l12 2v-125q-4 0 -9 -1t-7 -1q-133 -14 -133 -43q0 -15 24 -66l50 -100l153 -297l15 25l57 106q32 62 97 187t65 143q0 24 -123 45l-13 2v125l11 -2q98 -6 217 -6q118 0 237 6l13 2v-125l-13 -2l-51 -8q-40 -7 -55 -16.5 t-33 -41.5l-27 -47l-69 -119l-78 -137q-29 -53 -76 -137q-35 -59 -80 -139l-4 -8h375l-16 -93h-367v-102h352l-18 -88h-334v-51q0 -77 19 -94q21 -21 145 -35v-123h-10q-16 0 -111.5 3t-175.5 3q-79 0 -173.5 -3t-109.5 -3h-10v123q92 12 121 22q25 6 32.5 25.5t10.5 79.5 q0 15 2 39v14h-377l19 88h360q0 -3 -2 8v6q0 3 1 22t1 36v30h-350l18 93h320l-4 10q-6 14 -136 258l-137 258l-32 55q-20 33 -29 41q-19 17 -121 31z" />
<glyph unicode="&#xa7;" d="M205 82h129q11 -103 26 -119q19 -19 113 -33q76 -12 121 -12q207 0 207 127q0 50 -33 80t-170 78q-142 49 -236 106q-149 92 -149 287q0 172 127 274q-104 75 -104 213q0 295 407 295q92 0 199 -8q133 -10 147 -10h19v-12q0 -22 -1 -60t-1 -55q0 -107 6 -168h-131 q-7 67 -13 90q-6 30 -34 39q-70 23 -166 23q-176 0 -176 -101q0 -83 163 -129q177 -49 254 -92q183 -101 183 -330q0 -159 -115 -276q94 -79 94 -211q0 -156 -117.5 -242t-330.5 -86q-133 0 -295 29l-117 20v152l-4 117zM430 657q0 -81 43 -129q48 -52 229 -116l125 -43 q52 66 52 145q0 83 -52.5 138.5t-230.5 113.5l-111 37q-55 -59 -55 -146z" />
<glyph unicode="&#xa8;" horiz-adv-x="764" d="M76 1298q0 127 114 127q111 0 111 -120q0 -127 -113 -127q-112 0 -112 120zM461 1298q0 127 117 127q110 0 110 -120q0 -127 -113 -127q-114 0 -114 120z" />
<glyph unicode="&#xa9;" horiz-adv-x="1593" d="M86 672q0 298 207 506t504 208q295 0 502.5 -207.5t207.5 -502.5q0 -291 -206.5 -500t-493.5 -209q-300 0 -510.5 206t-210.5 499zM156 676q0 -263 186 -452t444 -189q272 0 462 185.5t190 451.5q0 269 -187 458t-454 189q-266 0 -453.5 -188t-187.5 -455zM410 670 q0 430 395 430q80 0 153.5 -6.5t88.5 -6.5h10q-2 -18 -2 -40q0 -20 3 -80.5t3 -89.5v-11h-76v8l-8 48q-7 38 -19 45q-24 20 -127 20q-126 0 -182.5 -70t-56.5 -227q0 -325 250 -325q110 0 135 22q14 13 22 94l2 8h74v-8l-4 -90l-2 -112l-8 -3q-119 -28 -260 -28 q-391 0 -391 422z" />
<glyph unicode="&#xaa;" horiz-adv-x="920" d="M86 881q0 112 64 172q72 67 270 67h61q1 0 17.5 -2t31.5 -2h9v25q0 71 -27 92q-39 31 -131 31q-107 0 -127 -17q-19 -11 -23 -73h-81l2 6q2 25 6 94q4 78 4 76v10h12l121 8q91 6 151 6q141 0 203.5 -48t61.5 -157l-2 -165l2 -162q0 -16 2 -37q1 -27 12 -35 q18 -14 106 -22v-78h-6q-17 0 -52.5 2t-55.5 2q-15 0 -58.5 -2t-72.5 -2h-11l-2 6q-4 61 -4 78v22q-59 -125 -229 -125q-254 0 -254 230zM88 391v133h739v-133h-739zM262 887q0 -127 123 -127q71 0 109 49q45 59 45 201v10h-13l-47 4h-24q-193 0 -193 -137z" />
<glyph unicode="&#xab;" horiz-adv-x="1106" d="M86 475l219 332h262l-219 -332l217 -332h-262zM537 475l221 332h260l-219 -332l219 -332h-262z" />
<glyph unicode="&#xac;" d="M125 473v156h1046v-527h-155v371h-891z" />
<glyph unicode="&#xad;" horiz-adv-x="649" d="M-6 485v168h20q18 0 114 -2t173 -2q92 0 203 2t131 2h20v-168q-12 0 -20 2q-119 5 -297 5q-197 0 -324 -5q-13 -2 -20 -2z" />
<glyph unicode="&#xae;" horiz-adv-x="1327" d="M86 805q0 242 169 411.5t409 169.5q239 0 408 -168.5t169 -408.5q0 -235 -168 -405.5t-401 -170.5q-243 0 -414.5 167t-171.5 405zM160 809q0 -206 146.5 -355t348.5 -149q214 0 363 146t149 354q0 212 -146.5 360t-356.5 148q-209 0 -356.5 -147.5t-147.5 -356.5z M362 522v56q49 5 62 8q17 3 18 45l2 88v178l-2 86q0 34 -8 39q-9 9 -65 16l-7 2v56l7 -2q16 0 50 -1t52 -1q27 0 88 2l62 2q61 2 79 2q207 0 207 -158q0 -126 -123 -152q4 -4 4 -6q8 -7 25 -34l31 -50q5 -8 24 -36q4 -7 10.5 -17.5t8.5 -13.5l12 -17l8 -12q11 -15 68 -22 l8 -2v-56h-6q-11 0 -40 2t-46 2t-47.5 -2t-42.5 -2h-8l-2 6l-27 50l-39 67q-40 69 -78 125l-4 4l-68 2v-57l3 -88q0 -17 8 -39q9 -9 69 -14v-56h-4q-41 4 -139 4q-106 0 -143 -4h-7zM575 850h39l11 -2q81 0 113 19.5t32 70.5q0 82 -111 82q-36 0 -81 -4v-8q-3 -9 -3 -58 v-100z" />
<glyph unicode="&#xaf;" horiz-adv-x="842" d="M76 1225l49 170h643l-49 -170h-643z" />
<glyph unicode="&#x2c9;" horiz-adv-x="842" d="M76 1225l49 170h643l-49 -170h-643z" />
<glyph unicode="&#xb0;" d="M295 1028q0 149 103 253.5t249 104.5q148 0 251 -101.5t103 -246.5q0 -147 -104.5 -252.5t-253.5 -105.5q-144 0 -246 102t-102 246zM432 1038q0 -90 62 -154.5t149 -64.5q92 0 156.5 64t64.5 153t-64 153t-153 64t-152 -63t-63 -152z" />
<glyph unicode="&#xb1;" d="M135 -6v153h19q67 -6 495 -6h68q142 0 285 3l143 3h16v-153l-16 2q-49 6 -496 6h-82q-366 0 -415 -6zM135 719v155h23l417 -6v23q0 68 -2 151l-8 269h166v-19l-10 -424h24l416 6v-155l-24 2l-416 4l2 -27v-116l8 -299h-164l2 18q0 17 2 101q2 104 2 186q1 20 2 61v51v25 h-20q-25 0 -71 -1q-56 -1 -76 -1z" />
<glyph unicode="&#xb2;" d="M119 -6q2 112 26 207q57 221 285 379l246 170q174 120 174 262q0 200 -244 200q-102 0 -188 -24q-36 -10 -47.5 -27.5t-16.5 -68.5l-8 -86h-127q8 81 8 278v51l17 4q172 43 399 43q235 0 360 -97t125 -279q0 -154 -90 -258q-68 -80 -231 -177l-152 -90 q-223 -133 -266 -309h19q64 0 156 -1t118 -1q119 0 285 6q31 1 45 8q18 15 39 156l2 14h127l-2 -16l-11 -162q-4 -65 -4 -127v-55h-1044z" />
<glyph unicode="&#xb3;" d="M137 336h125q2 -26 12 -84q12 -63 27 -78q48 -45 246 -45q157 0 244.5 74.5t87.5 208.5q0 266 -320 266q-106 0 -174 -19l-61 103l12 10l446 397q-65 2 -155 2h-160q-119 0 -137 -18q-16 -13 -31 -149l-2 -19h-127l2 16q10 82 10 297v62h905v-131l-12 -8l-205 -183 q-141 -125 -190 -172q-4 -4 -21 -18h41q208 0 333.5 -116.5t125.5 -309.5q0 -229 -172 -352q-146 -105 -428 -105q-195 0 -414 43v103q0 159 -6 208z" />
<glyph unicode="&#xb4;" horiz-adv-x="715" d="M76 1153l235 270h330l-369 -270h-196z" />
<glyph unicode="&#xb6;" d="M152 940q0 216 155 336q59 46 121 64q67 20 215 20h504v-150h-109v-1599h-143v1599h-184v-1599h-144v924q-87 0 -151 18q-123 35 -193.5 138t-70.5 249zM309 942q0 -149 94 -223q54 -43 164 -45v536q-71 0 -114 -16q-66 -25 -105 -93.5t-39 -158.5z" />
<glyph unicode="&#xb7;" horiz-adv-x="432" d="M76 688q0 158 139 158q141 0 141 -152q0 -157 -141 -157q-139 0 -139 151z" />
<glyph unicode="&#x2219;" horiz-adv-x="432" d="M76 688q0 158 139 158q141 0 141 -152q0 -157 -141 -157q-139 0 -139 151z" />
<glyph unicode="&#xb8;" horiz-adv-x="602" d="M76 -395l20 102q80 -24 140 -24q102 0 102 57t-102 57h-15l-20 -2h-11l109 199h135l-63 -119q157 -9 157 -127q0 -78 -69.5 -130t-175.5 -52q-107 0 -207 39z" />
<glyph unicode="&#xb9;" d="M330 1079v187q175 32 272 120h191v-14l-9 -287l-6 -333l4 -494q0 -21 1 -46t1 -30q4 -33 31.5 -45.5t132.5 -23.5l19 -2v-117h-15q-31 0 -130.5 3t-168.5 3q-67 0 -167 -3t-134 -3h-16v117q96 3 149 24q23 10 29 29q7 25 8 98l6 416l-4 487q-79 -70 -194 -86z" />
<glyph unicode="&#xba;" horiz-adv-x="883" d="M86 1010q0 192 86.5 280t273.5 88q349 0 349 -366q0 -359 -361 -359q-348 0 -348 357zM88 391v133h707v-133h-707zM270 1024q0 -140 40 -201t132 -61q170 0 170 252q0 256 -174 256q-168 0 -168 -246z" />
<glyph unicode="&#xbb;" horiz-adv-x="1104" d="M86 807h262l221 -332l-219 -332h-262l219 332zM535 807h264l217 -332l-215 -332h-264l219 332z" />
<glyph unicode="&#xbc;" horiz-adv-x="3299" d="M2083 383v158l10 12q86 98 334 391q141 175 324 399l18 23h272v-25l-6 -229l-4 -567l170 2v-164l-170 2l4 -197q2 -34 19 -45q25 -17 149 -30l19 -2v-117h-17q-31 0 -133.5 3t-173.5 3q-68 0 -163.5 -3t-123.5 -3h-14v117q86 6 135 20q30 8 38 23.5t9 62.5l4 166l-16 2 q-9 0 -89 1t-151 1h-55zM2298 547h20q13 0 96.5 -1t153.5 -1q56 0 123.5 1t79.5 1h14v14l4 258l-2 328l-16 -21q-62 -73 -238 -288q-90 -114 -221 -275zM1255 -6l629 1366h160l-629 -1366h-160zM330 1079v187q175 32 272 120h191v-14l-9 -287l-6 -333l4 -494q0 -21 1 -46 t1 -30q4 -33 31.5 -45.5t132.5 -23.5l19 -2v-117h-15q-31 0 -130.5 3t-168.5 3q-67 0 -167 -3t-134 -3h-16v117q96 3 149 24q23 10 29 29q7 25 8 98l6 416l-4 487q-79 -70 -194 -86z" />
<glyph unicode="&#xbd;" horiz-adv-x="3299" d="M2122 -6q2 112 26 207q57 221 285 379l246 170q174 120 174 262q0 200 -244 200q-102 0 -188 -24q-36 -10 -47.5 -27.5t-16.5 -68.5l-8 -86h-127q8 81 8 278v51l17 4q172 43 399 43q235 0 360 -97t125 -279q0 -154 -90 -258q-68 -80 -231 -177l-152 -90 q-223 -133 -266 -309h19q64 0 156 -1t118 -1q119 0 285 6q31 1 45 8q18 15 39 156l2 14h127l-2 -16l-11 -162q-4 -65 -4 -127v-55h-1044zM1255 -6l629 1366h160l-629 -1366h-160zM330 1079v187q175 32 272 120h191v-14l-9 -287l-6 -333l4 -494q0 -21 1 -46t1 -30 q4 -33 31.5 -45.5t132.5 -23.5l19 -2v-117h-15q-31 0 -130.5 3t-168.5 3q-67 0 -167 -3t-134 -3h-16v117q96 3 149 24q23 10 29 29q7 25 8 98l6 416l-4 487q-79 -70 -194 -86z" />
<glyph unicode="&#xbe;" horiz-adv-x="3299" d="M2083 383v158l10 12q86 98 334 391q141 175 324 399l18 23h272v-25l-6 -229l-4 -567l170 2v-164l-170 2l4 -197q2 -34 19 -45q25 -17 149 -30l19 -2v-117h-17q-31 0 -133.5 3t-173.5 3q-68 0 -163.5 -3t-123.5 -3h-14v117q86 6 135 20q30 8 38 23.5t9 62.5l4 166l-16 2 q-9 0 -89 1t-151 1h-55zM2298 547h20q13 0 96.5 -1t153.5 -1q56 0 123.5 1t79.5 1h14v14l4 258l-2 328l-16 -21q-62 -73 -238 -288q-90 -114 -221 -275zM1255 -6l629 1366h160l-629 -1366h-160zM137 336h125q2 -26 12 -84q12 -63 27 -78q48 -45 246 -45q157 0 244.5 74.5 t87.5 208.5q0 266 -320 266q-106 0 -174 -19l-61 103l12 10l446 397q-65 2 -155 2h-160q-119 0 -137 -18q-16 -13 -31 -149l-2 -19h-127l2 16q10 82 10 297v62h905v-131l-12 -8l-205 -183q-141 -125 -190 -172q-4 -4 -21 -18h41q208 0 333.5 -116.5t125.5 -309.5 q0 -229 -172 -352q-146 -105 -428 -105q-195 0 -414 43v103q0 159 -6 208z" />
<glyph unicode="&#xbf;" horiz-adv-x="1063" d="M86 -10q0 129 76 221q42 51 137 106q129 75 156.5 108t27.5 101v27h236q2 -21 2 -39q0 -174 -141 -266l-82 -53q-80 -52 -109 -95.5t-29 -109.5q0 -191 269 -191q155 0 188 33q18 18 33 158h125v-19q-4 -37 -8 -170t-4 -129v-16h-15q-40 -3 -187 -15t-218 -12 q-222 0 -339.5 93t-117.5 268zM465 881q0 157 143 157q140 0 140 -151q0 -158 -140 -158q-143 0 -143 152z" />
<glyph unicode="&#xc0;" horiz-adv-x="1585" d="M8 -6v123l15 2q87 12 105 17q29 9 42 30q10 15 31 63q64 147 174 435l184 487q12 33 12 45q0 14 -10 25q-10 6 -88 18h-14v125h14q22 0 122 -3t150 -3q129 0 197 6h10q2 -6 4 -10q14 -50 78 -221l105 -279l237 -610q34 -84 66 -97q49 -19 133 -28v-125h-12 q-23 0 -127.5 3t-186.5 3q-81 0 -185.5 -3t-127.5 -3h-12v123q49 7 100 18q61 13 61 39q0 10 -4 24t-12 40q-16 50 -31 94q-12 36 -30 92l-7 14q-8 2 -16 2q-47 2 -242 2q-188 0 -237 -2q-3 0 -14 -2l-7 -12q-28 -73 -73 -215q-6 -19 -6 -33q0 -24 30 -35q53 -17 139 -24 l3 -125h-15q-26 0 -124.5 3t-170.5 3q-62 0 -144.5 -3t-103.5 -3h-12zM549 606q3 0 8.5 -1t7.5 -1q8 0 63 -1t101 -1q158 0 215 4l-8 19q-20 58 -86 243q-48 135 -92 244l-13 31q-9 -23 -12 -33q-17 -42 -90 -238q-28 -83 -88 -249zM279 1785h332l229 -270h-195z" />
<glyph unicode="&#xc1;" horiz-adv-x="1585" d="M8 -6v123l15 2q87 12 105 17q29 9 42 30q10 15 31 63q64 147 174 435l184 487q12 33 12 45q0 14 -10 25q-10 6 -88 18h-14v125h14q22 0 122 -3t150 -3q129 0 197 6h10q2 -6 4 -10q14 -50 78 -221l105 -279l237 -610q34 -84 66 -97q49 -19 133 -28v-125h-12 q-23 0 -127.5 3t-186.5 3q-81 0 -185.5 -3t-127.5 -3h-12v123q49 7 100 18q61 13 61 39q0 10 -4 24t-12 40q-16 50 -31 94q-12 36 -30 92l-7 14q-8 2 -16 2q-47 2 -242 2q-188 0 -237 -2q-3 0 -14 -2l-7 -12q-28 -73 -73 -215q-6 -19 -6 -33q0 -24 30 -35q53 -17 139 -24 l3 -125h-15q-26 0 -124.5 3t-170.5 3q-62 0 -144.5 -3t-103.5 -3h-12zM549 606q3 0 8.5 -1t7.5 -1q8 0 63 -1t101 -1q158 0 215 4l-8 19q-20 58 -86 243q-48 135 -92 244l-13 31q-9 -23 -12 -33q-17 -42 -90 -238q-28 -83 -88 -249zM621 1515l235 270h330l-369 -270h-196z " />
<glyph unicode="&#xc2;" horiz-adv-x="1585" d="M8 -6v123l15 2q87 12 105 17q29 9 42 30q10 15 31 63q64 147 174 435l184 487q12 33 12 45q0 14 -10 25q-10 6 -88 18h-14v125h14q22 0 122 -3t150 -3q129 0 197 6h10q2 -6 4 -10q14 -50 78 -221l105 -279l237 -610q34 -84 66 -97q49 -19 133 -28v-125h-12 q-23 0 -127.5 3t-186.5 3q-81 0 -185.5 -3t-127.5 -3h-12v123q49 7 100 18q61 13 61 39q0 10 -4 24t-12 40q-16 50 -31 94q-12 36 -30 92l-7 14q-8 2 -16 2q-47 2 -242 2q-188 0 -237 -2q-3 0 -14 -2l-7 -12q-28 -73 -73 -215q-6 -19 -6 -33q0 -24 30 -35q53 -17 139 -24 l3 -125h-15q-26 0 -124.5 3t-170.5 3q-62 0 -144.5 -3t-103.5 -3h-12zM549 606q3 0 8.5 -1t7.5 -1q8 0 63 -1t101 -1q158 0 215 4l-8 19q-20 58 -86 243q-48 135 -92 244l-13 31q-9 -23 -12 -33q-17 -42 -90 -238q-28 -83 -88 -249zM379 1515l237 293h269l249 -293h-196 l-193 184l-184 -184h-182z" />
<glyph unicode="&#xc3;" horiz-adv-x="1585" d="M8 -6v123l15 2q87 12 105 17q29 9 42 30q10 15 31 63q64 147 174 435l184 487q12 33 12 45q0 14 -10 25q-10 6 -88 18h-14v125h14q22 0 122 -3t150 -3q129 0 197 6h10q2 -6 4 -10q14 -50 78 -221l105 -279l237 -610q34 -84 66 -97q49 -19 133 -28v-125h-12 q-23 0 -127.5 3t-186.5 3q-81 0 -185.5 -3t-127.5 -3h-12v123q49 7 100 18q61 13 61 39q0 10 -4 24t-12 40q-16 50 -31 94q-12 36 -30 92l-7 14q-8 2 -16 2q-47 2 -242 2q-188 0 -237 -2q-3 0 -14 -2l-7 -12q-28 -73 -73 -215q-6 -19 -6 -33q0 -24 30 -35q53 -17 139 -24 l3 -125h-15q-26 0 -124.5 3t-170.5 3q-62 0 -144.5 -3t-103.5 -3h-12zM549 606q3 0 8.5 -1t7.5 -1q8 0 63 -1t101 -1q158 0 215 4l-8 19q-20 58 -86 243q-48 135 -92 244l-13 31q-9 -23 -12 -33q-17 -42 -90 -238q-28 -83 -88 -249zM336 1587q115 150 258 150q56 0 104 -12 l129 -33q49 -12 92 -12q69 0 132 65l81 -80q-109 -151 -243 -151q-73 0 -168 24q-128 33 -172 33q-70 0 -131 -61z" />
<glyph unicode="&#xc4;" horiz-adv-x="1585" d="M8 -6v123l15 2q87 12 105 17q29 9 42 30q10 15 31 63q64 147 174 435l184 487q12 33 12 45q0 14 -10 25q-10 6 -88 18h-14v125h14q22 0 122 -3t150 -3q129 0 197 6h10q2 -6 4 -10q14 -50 78 -221l105 -279l237 -610q34 -84 66 -97q49 -19 133 -28v-125h-12 q-23 0 -127.5 3t-186.5 3q-81 0 -185.5 -3t-127.5 -3h-12v123q49 7 100 18q61 13 61 39q0 10 -4 24t-12 40q-16 50 -31 94q-12 36 -30 92l-7 14q-8 2 -16 2q-47 2 -242 2q-188 0 -237 -2q-3 0 -14 -2l-7 -12q-28 -73 -73 -215q-6 -19 -6 -33q0 -24 30 -35q53 -17 139 -24 l3 -125h-15q-26 0 -124.5 3t-170.5 3q-62 0 -144.5 -3t-103.5 -3h-12zM549 606q3 0 8.5 -1t7.5 -1q8 0 63 -1t101 -1q158 0 215 4l-8 19q-20 58 -86 243q-48 135 -92 244l-13 31q-9 -23 -12 -33q-17 -42 -90 -238q-28 -83 -88 -249zM418 1632q0 127 114 127q111 0 111 -120 q0 -127 -113 -127q-112 0 -112 120zM803 1632q0 127 117 127q110 0 110 -120q0 -127 -113 -127q-114 0 -114 120z" />
<glyph unicode="&#xc5;" horiz-adv-x="1585" d="M8 -6v123l15 2q87 12 105 17q29 9 42 30q10 15 31 63q64 147 174 435l184 487q12 33 12 45q0 14 -10 25q-10 6 -88 18h-14v125h14q22 0 122 -3t150 -3q129 0 197 6h10q2 -6 4 -10q14 -50 78 -221l105 -279l237 -610q34 -84 66 -97q49 -19 133 -28v-125h-12 q-23 0 -127.5 3t-186.5 3q-81 0 -185.5 -3t-127.5 -3h-12v123q49 7 100 18q61 13 61 39q0 10 -4 24t-12 40q-16 50 -31 94q-12 36 -30 92l-7 14q-8 2 -16 2q-47 2 -242 2q-188 0 -237 -2q-3 0 -14 -2l-7 -12q-28 -73 -73 -215q-6 -19 -6 -33q0 -24 30 -35q53 -17 139 -24 l3 -125h-15q-26 0 -124.5 3t-170.5 3q-62 0 -144.5 -3t-103.5 -3h-12zM549 606q3 0 8.5 -1t7.5 -1q8 0 63 -1t101 -1q158 0 215 4l-8 19q-20 58 -86 243q-48 135 -92 244l-13 31q-9 -23 -12 -33q-17 -42 -90 -238q-28 -83 -88 -249zM543 1638q0 189 180 189t180 -185 q0 -182 -182 -182q-178 0 -178 178zM643 1638q0 -106 80 -106t80 108q0 115 -82 115q-78 0 -78 -109v-8z" />
<glyph unicode="&#xc6;" horiz-adv-x="2232" d="M8 -6v123l12 2l52 6q59 7 110 61q68 72 209 265l187 254q76 104 176 243l153 215q19 26 19 39q0 18 -101 31l-16 2v125l16 -2q49 -6 455 -6h53q639 0 719 6l27 2v-60q0 -88 8 -239l2 -12h-127q-16 101 -39 118q-18 14 -53 17q-62 4 -250 4q-32 0 -95 -2t-93 -2h-17v-15 l-4 -168v-198l-2 -17h16l215 -2q43 0 132 2q44 1 65 7q42 9 49 55l12 74h121v-15q0 -41 -1 -109.5t-1 -97.5q0 -145 4 -202l2 -13h-127l-2 13q-15 94 -34 110q-14 12 -43 15q-12 0 -70 1t-94 1h-41l-203 -2l2 -17l6 -446h17q21 0 88.5 -1t111.5 -1q248 0 301 8q33 5 47 34 t25 117h125v-18q0 -25 -4 -106.5t-4 -126.5q0 -11 1 -30.5t1 -29.5v-12h-19l-735 6l-436 -6v123q139 12 162 35q15 15 18 47q0 9 2 88t2 123v26l-28 2q-29 2 -226 2h-73q-179 0 -197 -2l-18 -2l-138 -207q-30 -46 -30 -61q0 -12 12 -18q19 -11 143 -29q2 0 8 -1t11 -1v-125 h-15q-34 0 -125.5 3t-148.5 3t-147.5 -3t-122.5 -3h-17zM694 604l21 -2q20 -2 203 -2q159 0 182 2l22 2v72q0 180 -6 420q-1 56 -6 96l-18 -23q-19 -22 -185 -258q-85 -118 -200 -286z" />
<glyph unicode="&#xc7;" horiz-adv-x="1341" d="M109 670q0 469 268 630q142 86 383 86q108 0 266 -12q105 -8 150 -8h12q-2 -31 -2 -68q0 -26 4 -123t4 -159v-17l-123 -2l-2 13l-12 82q-8 54 -31 73q-49 33 -215 33q-209 0 -303 -117.5t-94 -378.5q0 -542 415 -542q187 0 226 41q20 21 39 153l2 15h123v-15l-7 -147 l-2 -176l-2 -13l-12 -4q-158 -33 -322 -43l-49 -96q156 -9 156 -127q0 -78 -69.5 -130t-174.5 -52t-209 39l21 102q83 -24 141 -24q103 0 103 57t-105 57h-12l-21 -2h-10l94 172q-170 5 -286 47q-165 60 -254.5 231t-89.5 425z" />
<glyph unicode="&#xc8;" horiz-adv-x="1364" d="M68 -6v123q139 12 161 35q19 18 19 47v47q0 65 3 222t3 230q0 94 -2 195l-4 203q-2 85 -17 100q-35 28 -163 39v125l14 -2q127 -4 328 -4h55l745 6v-31v1l2 -128q1 -36 3 -86q2 -44 2 -57v-12h-127l-3 12q-15 94 -32 108.5t-45 14.5q-59 6 -238 6q-28 0 -94.5 -2 t-110.5 -2h-20v-15l-4 -168v-198l-2 -15q8 -2 12 -2h186l158 2q79 2 94 13q28 20 39 121h121v-15q0 -39 -1 -103t-1 -89q0 -39 2 -111t2 -106v-13h-125l-2 13q-10 62 -12 67q-12 42 -39 52q-10 4 -27 6h-53q-61 1 -152 2q-56 0 -116 -1q-66 -1 -68 -1h-18v-17l8 -446h16 q15 0 78 -1t111 -1q261 0 313 8q32 5 46.5 35.5t25.5 115.5h125v-18q0 -25 -4.5 -106.5t-4.5 -126.5q0 -39 2 -60v-12h-18l-735 6zM348 1785h332l229 -270h-195z" />
<glyph unicode="&#xc9;" horiz-adv-x="1364" d="M68 -6v123q139 12 161 35q19 18 19 47v47q0 65 3 222t3 230q0 94 -2 195l-4 203q-2 85 -17 100q-35 28 -163 39v125l14 -2q127 -4 328 -4h55l745 6v-31v1l2 -128q1 -36 3 -86q2 -44 2 -57v-12h-127l-3 12q-15 94 -32 108.5t-45 14.5q-59 6 -238 6q-28 0 -94.5 -2 t-110.5 -2h-20v-15l-4 -168v-198l-2 -15q8 -2 12 -2h186l158 2q79 2 94 13q28 20 39 121h121v-15q0 -39 -1 -103t-1 -89q0 -39 2 -111t2 -106v-13h-125l-2 13q-10 62 -12 67q-12 42 -39 52q-10 4 -27 6h-53q-61 1 -152 2q-56 0 -116 -1q-66 -1 -68 -1h-18v-17l8 -446h16 q15 0 78 -1t111 -1q261 0 313 8q32 5 46.5 35.5t25.5 115.5h125v-18q0 -25 -4.5 -106.5t-4.5 -126.5q0 -39 2 -60v-12h-18l-735 6zM551 1515l235 270h330l-369 -270h-196z" />
<glyph unicode="&#xca;" horiz-adv-x="1364" d="M68 -6v123q139 12 161 35q19 18 19 47v47q0 65 3 222t3 230q0 94 -2 195l-4 203q-2 85 -17 100q-35 28 -163 39v125l14 -2q127 -4 328 -4h55l745 6v-31v1l2 -128q1 -36 3 -86q2 -44 2 -57v-12h-127l-3 12q-15 94 -32 108.5t-45 14.5q-59 6 -238 6q-28 0 -94.5 -2 t-110.5 -2h-20v-15l-4 -168v-198l-2 -15q8 -2 12 -2h186l158 2q79 2 94 13q28 20 39 121h121v-15q0 -39 -1 -103t-1 -89q0 -39 2 -111t2 -106v-13h-125l-2 13q-10 62 -12 67q-12 42 -39 52q-10 4 -27 6h-53q-61 1 -152 2q-56 0 -116 -1q-66 -1 -68 -1h-18v-17l8 -446h16 q15 0 78 -1t111 -1q261 0 313 8q32 5 46.5 35.5t25.5 115.5h125v-18q0 -25 -4.5 -106.5t-4.5 -126.5q0 -39 2 -60v-12h-18l-735 6zM287 1515l237 293h269l249 -293h-196l-193 184l-184 -184h-182z" />
<glyph unicode="&#xcb;" horiz-adv-x="1364" d="M68 -6v123q139 12 161 35q19 18 19 47v47q0 65 3 222t3 230q0 94 -2 195l-4 203q-2 85 -17 100q-35 28 -163 39v125l14 -2q127 -4 328 -4h55l745 6v-31v1l2 -128q1 -36 3 -86q2 -44 2 -57v-12h-127l-3 12q-15 94 -32 108.5t-45 14.5q-59 6 -238 6q-28 0 -94.5 -2 t-110.5 -2h-20v-15l-4 -168v-198l-2 -15q8 -2 12 -2h186l158 2q79 2 94 13q28 20 39 121h121v-15q0 -39 -1 -103t-1 -89q0 -39 2 -111t2 -106v-13h-125l-2 13q-10 62 -12 67q-12 42 -39 52q-10 4 -27 6h-53q-61 1 -152 2q-56 0 -116 -1q-66 -1 -68 -1h-18v-17l8 -446h16 q15 0 78 -1t111 -1q261 0 313 8q32 5 46.5 35.5t25.5 115.5h125v-18q0 -25 -4.5 -106.5t-4.5 -126.5q0 -39 2 -60v-12h-18l-735 6zM348 1632q0 127 114 127q111 0 111 -120q0 -127 -113 -127q-112 0 -112 120zM733 1632q0 127 117 127q110 0 110 -120q0 -127 -113 -127 q-114 0 -114 120z" />
<glyph unicode="&#xcc;" horiz-adv-x="793" d="M68 -6v123q139 12 161 35q19 18 19 47v47q0 65 3 222t3 230q0 94 -2 195l-4 203q-2 85 -17 100q-36 29 -163 39v125l14 -2q43 -6 313 -6q233 0 316 6l12 2v-125q-83 -8 -139 -27q-28 -9 -34.5 -26t-6.5 -86l-2 -203q-2 -203 -2 -211q0 -6 2 -221l2 -215q0 -77 20 -94 q27 -24 160 -33v-125h-10q-18 0 -123.5 3t-194.5 3q-87 0 -192.5 -3t-122.5 -3h-12zM21 1785h332l229 -270h-195z" />
<glyph unicode="&#xcd;" horiz-adv-x="793" d="M68 -6v123q139 12 161 35q19 18 19 47v47q0 65 3 222t3 230q0 94 -2 195l-4 203q-2 85 -17 100q-36 29 -163 39v125l14 -2q43 -6 313 -6q233 0 316 6l12 2v-125q-83 -8 -139 -27q-28 -9 -34.5 -26t-6.5 -86l-2 -203q-2 -203 -2 -211q0 -6 2 -221l2 -215q0 -77 20 -94 q27 -24 160 -33v-125h-10q-18 0 -123.5 3t-194.5 3q-87 0 -192.5 -3t-122.5 -3h-12zM199 1515l235 270h330l-369 -270h-196z" />
<glyph unicode="&#xce;" horiz-adv-x="793" d="M68 -6v123q139 12 161 35q19 18 19 47v47q0 65 3 222t3 230q0 94 -2 195l-4 203q-2 85 -17 100q-36 29 -163 39v125l14 -2q43 -6 313 -6q233 0 316 6l12 2v-125q-83 -8 -139 -27q-28 -9 -34.5 -26t-6.5 -86l-2 -203q-2 -203 -2 -211q0 -6 2 -221l2 -215q0 -77 20 -94 q27 -24 160 -33v-125h-10q-18 0 -123.5 3t-194.5 3q-87 0 -192.5 -3t-122.5 -3h-12zM17 1515l237 293h269l249 -293h-196l-193 184l-184 -184h-182z" />
<glyph unicode="&#xcf;" horiz-adv-x="793" d="M68 -6v123q139 12 161 35q19 18 19 47v47q0 65 3 222t3 230q0 94 -2 195l-4 203q-2 85 -17 100q-36 29 -163 39v125l14 -2q43 -6 313 -6q233 0 316 6l12 2v-125q-83 -8 -139 -27q-28 -9 -34.5 -26t-6.5 -86l-2 -203q-2 -203 -2 -211q0 -6 2 -221l2 -215q0 -77 20 -94 q27 -24 160 -33v-125h-10q-18 0 -123.5 3t-194.5 3q-87 0 -192.5 -3t-122.5 -3h-12zM84 1632q0 127 114 127q111 0 111 -120q0 -127 -113 -127q-112 0 -112 120zM469 1632q0 127 117 127q110 0 110 -120q0 -127 -113 -127q-114 0 -114 120z" />
<glyph unicode="&#xd1;" horiz-adv-x="1651" d="M68 -6v123q91 10 135 20q31 7 39 35q5 20 6 68l6 510q0 184 -4 337q-2 63 -6 82q-6 26 -39 37q-62 21 -137 29v125l14 -2q43 -6 213 -6q174 0 223 6l17 2l6 -12l159 -254l506 -777v156l-2 195v239q0 141 -2 196.5t-6 67.5q-7 36 -160 62l-12 2v125l12 -2q80 -6 260 -6 q193 0 273 6l12 2v-125l-12 -2q-126 -21 -150 -39q-20 -15 -24.5 -58.5t-5.5 -230.5l-3 -241l9 -670h-291l-8 12l-170 270l-164 252q-93 144 -150 228l-172 258l-2 -35v-123l-2 -190v-213l4 -213q2 -70 17 -86q26 -29 166 -35v-125h-13q-22 0 -124.5 3t-163.5 3 q-62 0 -142 -3t-100 -3h-12zM420 1587q115 150 258 150q56 0 104 -12l129 -33q49 -12 92 -12q69 0 132 65l81 -80q-109 -151 -243 -151q-73 0 -168 24q-128 33 -172 33q-70 0 -131 -61z" />
<glyph unicode="&#xd2;" horiz-adv-x="1518" d="M109 664q0 443 208 610q144 115 445 115q349 0 502 -179q145 -168 145 -532q0 -430 -209 -598q-140 -113 -442 -113q-303 0 -443 113q-206 167 -206 584zM410 690q0 -301 76.5 -418.5t273.5 -117.5q193 0 270.5 116t77.5 408q0 290 -77.5 406t-272.5 116 q-192 0 -270 -114.5t-78 -395.5zM316 1785h332l229 -270h-195z" />
<glyph unicode="&#xd3;" horiz-adv-x="1518" d="M109 664q0 443 208 610q144 115 445 115q349 0 502 -179q145 -168 145 -532q0 -430 -209 -598q-140 -113 -442 -113q-303 0 -443 113q-206 167 -206 584zM410 690q0 -301 76.5 -418.5t273.5 -117.5q193 0 270.5 116t77.5 408q0 290 -77.5 406t-272.5 116 q-192 0 -270 -114.5t-78 -395.5zM594 1515l235 270h330l-369 -270h-196z" />
<glyph unicode="&#xd4;" horiz-adv-x="1518" d="M109 664q0 443 208 610q144 115 445 115q349 0 502 -179q145 -168 145 -532q0 -430 -209 -598q-140 -113 -442 -113q-303 0 -443 113q-206 167 -206 584zM410 690q0 -301 76.5 -418.5t273.5 -117.5q193 0 270.5 116t77.5 408q0 290 -77.5 406t-272.5 116 q-192 0 -270 -114.5t-78 -395.5zM387 1515l237 293h269l249 -293h-196l-193 184l-184 -184h-182z" />
<glyph unicode="&#xd5;" horiz-adv-x="1518" d="M109 664q0 443 208 610q144 115 445 115q349 0 502 -179q145 -168 145 -532q0 -430 -209 -598q-140 -113 -442 -113q-303 0 -443 113q-206 167 -206 584zM410 690q0 -301 76.5 -418.5t273.5 -117.5q193 0 270.5 116t77.5 408q0 290 -77.5 406t-272.5 116 q-192 0 -270 -114.5t-78 -395.5zM367 1587q115 150 258 150q56 0 104 -12l129 -33q49 -12 92 -12q69 0 132 65l81 -80q-109 -151 -243 -151q-73 0 -168 24q-128 33 -172 33q-70 0 -131 -61z" />
<glyph unicode="&#xd6;" horiz-adv-x="1518" d="M109 664q0 443 208 610q144 115 445 115q349 0 502 -179q145 -168 145 -532q0 -430 -209 -598q-140 -113 -442 -113q-303 0 -443 113q-206 167 -206 584zM410 690q0 -301 76.5 -418.5t273.5 -117.5q193 0 270.5 116t77.5 408q0 290 -77.5 406t-272.5 116 q-192 0 -270 -114.5t-78 -395.5zM451 1632q0 127 114 127q111 0 111 -120q0 -127 -113 -127q-112 0 -112 120zM836 1632q0 127 117 127q110 0 110 -120q0 -127 -113 -127q-114 0 -114 120z" />
<glyph unicode="&#xd8;" horiz-adv-x="1518" d="M53 -33l180 199q-127 184 -127 514q0 426 209 594q143 115 441 115q311 0 450 -121l105 116h151l-178 -200q123 -182 123 -504q0 -433 -209 -600q-140 -113 -430 -113q-247 0 -369 58q-32 15 -90 57l-102 -115h-154zM408 690q0 -170 28 -284l4 -17l590 688 q-75 123 -274 123q-194 0 -271 -113.5t-77 -396.5zM487 272q79 -118 271 -118q154 0 229 65q66 57 92 164q25 104 25 313v47q0 101 -25 199l-4 16z" />
<glyph unicode="&#xd9;" horiz-adv-x="1638" d="M68 1235v125l14 -2q43 -6 313 -6q233 0 316 6l12 2v-125q-83 -8 -139 -27q-28 -9 -34.5 -26t-6.5 -86l-4 -447q0 -199 4.5 -256t23.5 -98q64 -135 289 -135q223 0 293 135q21 41 27 82q8 60 8 258v41q0 116 -2 217l-4 203q-2 85 -19 100q-33 29 -162 39v125l15 -2 q43 -6 274 -6q184 0 270 6l13 2v-125q-93 -9 -139 -27q-28 -10 -34 -26.5t-7 -85.5l-5 -203l2 -461v-14q0 -152 -42 -234q-44 -86 -154 -143q-143 -74 -377 -74q-252 0 -397 84q-97 56 -130.5 132.5t-33.5 236.5v33q0 12 1 72.5t1 107.5v43q0 116 -2 217l-4 203 q-2 85 -17 100q-36 29 -163 39zM410 1785h332l229 -270h-195z" />
<glyph unicode="&#xda;" horiz-adv-x="1638" d="M68 1235v125l14 -2q43 -6 313 -6q233 0 316 6l12 2v-125q-83 -8 -139 -27q-28 -9 -34.5 -26t-6.5 -86l-4 -447q0 -199 4.5 -256t23.5 -98q64 -135 289 -135q223 0 293 135q21 41 27 82q8 60 8 258v41q0 116 -2 217l-4 203q-2 85 -19 100q-33 29 -162 39v125l15 -2 q43 -6 274 -6q184 0 270 6l13 2v-125q-93 -9 -139 -27q-28 -10 -34 -26.5t-7 -85.5l-5 -203l2 -461v-14q0 -152 -42 -234q-44 -86 -154 -143q-143 -74 -377 -74q-252 0 -397 84q-97 56 -130.5 132.5t-33.5 236.5v33q0 12 1 72.5t1 107.5v43q0 116 -2 217l-4 203 q-2 85 -17 100q-36 29 -163 39zM611 1515l235 270h330l-369 -270h-196z" />
<glyph unicode="&#xdb;" horiz-adv-x="1638" d="M68 1235v125l14 -2q43 -6 313 -6q233 0 316 6l12 2v-125q-83 -8 -139 -27q-28 -9 -34.5 -26t-6.5 -86l-4 -447q0 -199 4.5 -256t23.5 -98q64 -135 289 -135q223 0 293 135q21 41 27 82q8 60 8 258v41q0 116 -2 217l-4 203q-2 85 -19 100q-33 29 -162 39v125l15 -2 q43 -6 274 -6q184 0 270 6l13 2v-125q-93 -9 -139 -27q-28 -10 -34 -26.5t-7 -85.5l-5 -203l2 -461v-14q0 -152 -42 -234q-44 -86 -154 -143q-143 -74 -377 -74q-252 0 -397 84q-97 56 -130.5 132.5t-33.5 236.5v33q0 12 1 72.5t1 107.5v43q0 116 -2 217l-4 203 q-2 85 -17 100q-36 29 -163 39zM465 1515l237 293h269l249 -293h-196l-193 184l-184 -184h-182z" />
<glyph unicode="&#xdc;" horiz-adv-x="1638" d="M68 1235v125l14 -2q43 -6 313 -6q233 0 316 6l12 2v-125q-83 -8 -139 -27q-28 -9 -34.5 -26t-6.5 -86l-4 -447q0 -199 4.5 -256t23.5 -98q64 -135 289 -135q223 0 293 135q21 41 27 82q8 60 8 258v41q0 116 -2 217l-4 203q-2 85 -19 100q-33 29 -162 39v125l15 -2 q43 -6 274 -6q184 0 270 6l13 2v-125q-93 -9 -139 -27q-28 -10 -34 -26.5t-7 -85.5l-5 -203l2 -461v-14q0 -152 -42 -234q-44 -86 -154 -143q-143 -74 -377 -74q-252 0 -397 84q-97 56 -130.5 132.5t-33.5 236.5v33q0 12 1 72.5t1 107.5v43q0 116 -2 217l-4 203 q-2 85 -17 100q-36 29 -163 39zM551 1632q0 127 114 127q111 0 111 -120q0 -127 -113 -127q-112 0 -112 120zM936 1632q0 127 117 127q110 0 110 -120q0 -127 -113 -127q-114 0 -114 120z" />
<glyph unicode="&#xdd;" horiz-adv-x="1374" d="M0 1235v125l12 -2q117 -6 295 -6q183 0 309 6l13 2v-125l-15 -2q-133 -19 -133 -41q0 -21 27 -68l227 -397l15 25l114 194l56 98q23 40 53 93q18 37 18 53q0 34 -131 45v125l10 -2q114 -6 234 -6q121 0 256 6l14 2v-125l-71 -10q-45 -7 -61.5 -16t-37.5 -42l-30 -47 l-353 -575l2 -131q1 -90 4 -215q3 -34 19 -47q27 -24 160 -33v-125h-13q-17 0 -122.5 3t-192.5 3q-89 0 -194 -3t-122 -3h-12v123q138 13 162 35q13 12 16.5 48t6.5 214l2 141l-7 10q-36 68 -159 283l-78 131l-78 127l-35 53q-19 30 -33 43q-23 19 -133 31q-13 2 -14 2z M547 1515l235 270h330l-369 -270h-196z" />
<glyph unicode="&#xdf;" horiz-adv-x="1561" d="M41 -6v117q82 7 139 24q41 12 43 86q1 20 2 60q4 110 4 297q0 88 1 182t1 100v17h-122v139h120v94q0 95 68.5 182t169.5 121q128 43 315 43q202 0 332 -70q209 -112 209 -380q0 -70 -8 -127l-2 -15h-15q-107 13 -192 13q-201 0 -201 -107q0 -73 121 -115q33 -11 143 -43 q156 -44 224 -131q57 -73 57 -176q0 -173 -135 -264q-109 -74 -318 -74q-193 0 -383 45v37q0 17 -4 101l-6 139h127q9 -93 27 -117q39 -43 215 -43q207 0 207 135q0 55 -39 87.5t-144 64.5q-135 41 -181 61.5t-89 59.5q-82 74 -82 200q0 143 98.5 222t278.5 79h25q2 17 2 29 q0 229 -275 229q-146 0 -217 -61q-45 -39 -59 -100q-17 -70 -17 -310v-24l8 -807h-14q-56 0 -125.5 3t-93.5 3q-31 0 -97.5 -3t-103.5 -3h-14z" />
<glyph unicode="&#xe0;" horiz-adv-x="1200" d="M55 309q0 165 95 252q110 103 403 103q53 0 88 -2l70 -5h14v25q0 114 -41 147q-58 48 -190 48q-151 0 -193 -25q-25 -15 -33 -109h-121l3 9q4 47 10 140.5t6 111.5v12l16 2q30 0 180 12q126 10 222 10q198 0 298 -69q97 -67 97 -226v-10l-4 -246l4 -241q0 -12 1 -29 t1 -22q0 -35 18 -54q27 -20 158 -32l2 -117h-10q-32 0 -89 3t-81 3q-20 0 -81.5 -3t-102.5 -3h-17q0 4 -8 125l-2 33q-86 -185 -338 -185q-375 0 -375 342zM313 317q0 -87 49 -137.5t134 -50.5q106 0 161 74q36 47 54 127q12 50 12 168v16l-16 2l-70 4h-39q-285 0 -285 -203 zM150 1423h332l229 -270h-195z" />
<glyph unicode="&#xe1;" horiz-adv-x="1200" d="M55 309q0 165 95 252q110 103 403 103q53 0 88 -2l70 -5h14v25q0 114 -41 147q-58 48 -190 48q-151 0 -193 -25q-25 -15 -33 -109h-121l3 9q4 47 10 140.5t6 111.5v12l16 2q30 0 180 12q126 10 222 10q198 0 298 -69q97 -67 97 -226v-10l-4 -246l4 -241q0 -12 1 -29 t1 -22q0 -35 18 -54q27 -20 158 -32l2 -117h-10q-32 0 -89 3t-81 3q-20 0 -81.5 -3t-102.5 -3h-17q0 4 -8 125l-2 33q-86 -185 -338 -185q-375 0 -375 342zM313 317q0 -87 49 -137.5t134 -50.5q106 0 161 74q36 47 54 127q12 50 12 168v16l-16 2l-70 4h-39q-285 0 -285 -203 zM365 1153l235 270h330l-369 -270h-196z" />
<glyph unicode="&#xe2;" horiz-adv-x="1200" d="M55 309q0 165 95 252q110 103 403 103q53 0 88 -2l70 -5h14v25q0 114 -41 147q-58 48 -190 48q-151 0 -193 -25q-25 -15 -33 -109h-121l3 9q4 47 10 140.5t6 111.5v12l16 2q30 0 180 12q126 10 222 10q198 0 298 -69q97 -67 97 -226v-10l-4 -246l4 -241q0 -12 1 -29 t1 -22q0 -35 18 -54q27 -20 158 -32l2 -117h-10q-32 0 -89 3t-81 3q-20 0 -81.5 -3t-102.5 -3h-17q0 4 -8 125l-2 33q-86 -185 -338 -185q-375 0 -375 342zM313 317q0 -87 49 -137.5t134 -50.5q106 0 161 74q36 47 54 127q12 50 12 168v16l-16 2l-70 4h-39q-285 0 -285 -203 zM172 1153l237 293h269l249 -293h-196l-193 184l-184 -184h-182z" />
<glyph unicode="&#xe3;" horiz-adv-x="1200" d="M55 309q0 165 95 252q110 103 403 103q53 0 88 -2l70 -5h14v25q0 114 -41 147q-58 48 -190 48q-151 0 -193 -25q-25 -15 -33 -109h-121l3 9q4 47 10 140.5t6 111.5v12l16 2q30 0 180 12q126 10 222 10q198 0 298 -69q97 -67 97 -226v-10l-4 -246l4 -241q0 -12 1 -29 t1 -22q0 -35 18 -54q27 -20 158 -32l2 -117h-10q-32 0 -89 3t-81 3q-20 0 -81.5 -3t-102.5 -3h-17q0 4 -8 125l-2 33q-86 -185 -338 -185q-375 0 -375 342zM313 317q0 -87 49 -137.5t134 -50.5q106 0 161 74q36 47 54 127q12 50 12 168v16l-16 2l-70 4h-39q-285 0 -285 -203 zM166 1255q115 150 258 150q56 0 104 -12l129 -33q49 -12 92 -12q69 0 132 65l81 -80q-109 -151 -243 -151q-73 0 -168 24q-128 33 -172 33q-70 0 -131 -61z" />
<glyph unicode="&#xe4;" horiz-adv-x="1200" d="M55 309q0 165 95 252q110 103 403 103q53 0 88 -2l70 -5h14v25q0 114 -41 147q-58 48 -190 48q-151 0 -193 -25q-25 -15 -33 -109h-121l3 9q4 47 10 140.5t6 111.5v12l16 2q30 0 180 12q126 10 222 10q198 0 298 -69q97 -67 97 -226v-10l-4 -246l4 -241q0 -12 1 -29 t1 -22q0 -35 18 -54q27 -20 158 -32l2 -117h-10q-32 0 -89 3t-81 3q-20 0 -81.5 -3t-102.5 -3h-17q0 4 -8 125l-2 33q-86 -185 -338 -185q-375 0 -375 342zM313 317q0 -87 49 -137.5t134 -50.5q106 0 161 74q36 47 54 127q12 50 12 168v16l-16 2l-70 4h-39q-285 0 -285 -203 zM238 1298q0 127 114 127q111 0 111 -120q0 -127 -113 -127q-112 0 -112 120zM623 1298q0 127 117 127q110 0 110 -120q0 -127 -113 -127q-114 0 -114 120z" />
<glyph unicode="&#xe5;" horiz-adv-x="1200" d="M55 309q0 165 95 252q110 103 403 103q53 0 88 -2l70 -5h14v25q0 114 -41 147q-58 48 -190 48q-151 0 -193 -25q-25 -15 -33 -109h-121l3 9q4 47 10 140.5t6 111.5v12l16 2q30 0 180 12q126 10 222 10q198 0 298 -69q97 -67 97 -226v-10l-4 -246l4 -241q0 -12 1 -29 t1 -22q0 -35 18 -54q27 -20 158 -32l2 -117h-10q-32 0 -89 3t-81 3q-20 0 -81.5 -3t-102.5 -3h-17q0 4 -8 125l-2 33q-86 -185 -338 -185q-375 0 -375 342zM313 317q0 -87 49 -137.5t134 -50.5q106 0 161 74q36 47 54 127q12 50 12 168v16l-16 2l-70 4h-39q-285 0 -285 -203 zM381 1292q0 189 180 189t180 -185q0 -182 -182 -182q-178 0 -178 178zM481 1292q0 -106 80 -106t80 108q0 115 -82 115q-78 0 -78 -109v-8z" />
<glyph unicode="&#xe6;" horiz-adv-x="1806" d="M55 307q0 182 105 266q114 93 397 93q43 0 158 -4l10 -3v15l2 18q0 93 -33 129q-52 58 -186 58q-183 0 -211 -31q-13 -14 -31 -105h-119l3 13l10 127l4 116l2 15l14 2q46 2 181.5 12t193.5 10q132 0 211 -20q70 -18 141 -76q4 2 19 10q78 45 98 54q77 32 242 32 q426 0 426 -409q0 -8 -4 -111h-17q-36 0 -143 2t-178 2q-72 0 -184.5 -2t-151.5 -2h-19q0 -161 56 -256q73 -125 276 -125q172 0 334 76v-195q-192 -51 -389 -51q-149 0 -260 35q-126 39 -215 176q-28 -62 -60 -98q-101 -115 -307 -115q-375 0 -375 342zM313 317 q0 -87 49 -137.5t134 -50.5q104 0 161 72q32 39 43 84q23 86 23 213v16q-74 4 -119 4q-95 0 -155 -16q-136 -37 -136 -185zM997 664l19 -2q12 0 79.5 -1.5t123.5 -1.5q178 0 196 3l19 2v24q0 195 -201 195q-209 0 -236 -219z" />
<glyph unicode="&#xe7;" horiz-adv-x="1047" d="M84 489q0 148 47.5 272t128.5 187q116 90 350 90q89 0 146 -4l166 -12q-2 -23 -2 -49q0 -154 10 -260v-19h-121q-6 100 -23 142q-21 38 -145 38q-146 0 -207 -73q-76 -92 -76 -281q0 -383 283 -383q129 0 291 72v-186q-99 -32 -230 -48l-53 -100q158 -9 158 -127 q0 -78 -70 -130t-176 -52t-207 39l21 102q83 -24 141 -24q102 0 102 57t-104 57h-14l-19 -2h-12l94 172q-105 0 -190 27q-289 90 -289 495z" />
<glyph unicode="&#xe8;" horiz-adv-x="1161" d="M84 500q0 538 524 538q283 0 383 -156q53 -84 53 -261q0 -62 -2 -103h-20q-14 0 -124 2t-206 2q-93 0 -200 -2t-121 -2h-21q3 -192 70 -278q79 -103 252 -103q177 0 344 82v-194q-186 -56 -412 -56q-520 0 -520 531zM356 664q6 0 14 -1t10.5 -1t66.5 -1.5t124 -1.5h37 q48 0 103 1.5t61 1.5q2 0 7 1t9 1q0 69 -8 100q-31 115 -196 115q-201 0 -228 -215zM182 1423h332l229 -270h-195z" />
<glyph unicode="&#xe9;" horiz-adv-x="1161" d="M84 500q0 538 524 538q283 0 383 -156q53 -84 53 -261q0 -62 -2 -103h-20q-14 0 -124 2t-206 2q-93 0 -200 -2t-121 -2h-21q3 -192 70 -278q79 -103 252 -103q177 0 344 82v-194q-186 -56 -412 -56q-520 0 -520 531zM356 664q6 0 14 -1t10.5 -1t66.5 -1.5t124 -1.5h37 q48 0 103 1.5t61 1.5q2 0 7 1t9 1q0 69 -8 100q-31 115 -196 115q-201 0 -228 -215zM375 1153l235 270h330l-369 -270h-196z" />
<glyph unicode="&#xea;" horiz-adv-x="1161" d="M84 500q0 538 524 538q283 0 383 -156q53 -84 53 -261q0 -62 -2 -103h-20q-14 0 -124 2t-206 2q-93 0 -200 -2t-121 -2h-21q3 -192 70 -278q79 -103 252 -103q177 0 344 82v-194q-186 -56 -412 -56q-520 0 -520 531zM356 664q6 0 14 -1t10.5 -1t66.5 -1.5t124 -1.5h37 q48 0 103 1.5t61 1.5q2 0 7 1t9 1q0 69 -8 100q-31 115 -196 115q-201 0 -228 -215zM211 1153l237 293h269l249 -293h-196l-193 184l-184 -184h-182z" />
<glyph unicode="&#xeb;" horiz-adv-x="1161" d="M84 500q0 538 524 538q283 0 383 -156q53 -84 53 -261q0 -62 -2 -103h-20q-14 0 -124 2t-206 2q-93 0 -200 -2t-121 -2h-21q3 -192 70 -278q79 -103 252 -103q177 0 344 82v-194q-186 -56 -412 -56q-520 0 -520 531zM356 664q6 0 14 -1t10.5 -1t66.5 -1.5t124 -1.5h37 q48 0 103 1.5t61 1.5q2 0 7 1t9 1q0 69 -8 100q-31 115 -196 115q-201 0 -228 -215zM307 1298q0 127 114 127q111 0 111 -120q0 -127 -113 -127q-112 0 -112 120zM692 1298q0 127 117 127q110 0 110 -120q0 -127 -113 -127q-114 0 -114 120z" />
<glyph unicode="&#xec;" horiz-adv-x="709" d="M41 -6v117l16 2q113 14 138 32q23 12 24 109l2 129l-2 424q0 41 -23.5 52t-138.5 26l-16 2v114h16q245 0 435 31v-20q0 -15 -3 -75q-3 -72 -4 -126l-4 -213l2 -195q1 -104 6 -229q6 -28 37 -39q23 -8 125 -22q8 0 17 -2v-117h-17q-33 0 -135 3t-170 3q-66 0 -163 -3 t-128 -3h-14zM-53 1423h332l229 -270h-195z" />
<glyph unicode="&#xed;" horiz-adv-x="709" d="M41 -6v117l16 2q113 14 138 32q23 12 24 109l2 129l-2 424q0 41 -23.5 52t-138.5 26l-16 2v114h16q245 0 435 31v-20q0 -15 -3 -75q-3 -72 -4 -126l-4 -213l2 -195q1 -104 6 -229q6 -28 37 -39q23 -8 125 -22q8 0 17 -2v-117h-17q-33 0 -135 3t-170 3q-66 0 -163 -3 t-128 -3h-14zM119 1153l235 270h330l-369 -270h-196z" />
<glyph unicode="&#xee;" horiz-adv-x="709" d="M41 -6v117l16 2q113 14 138 32q23 12 24 109l2 129l-2 424q0 41 -23.5 52t-138.5 26l-16 2v114h16q245 0 435 31v-20q0 -15 -3 -75q-3 -72 -4 -126l-4 -213l2 -195q1 -104 6 -229q6 -28 37 -39q23 -8 125 -22q8 0 17 -2v-117h-17q-33 0 -135 3t-170 3q-66 0 -163 -3 t-128 -3h-14zM-37 1153l237 293h269l249 -293h-196l-193 184l-184 -184h-182z" />
<glyph unicode="&#xef;" horiz-adv-x="709" d="M41 -6v117l16 2q113 14 138 32q23 12 24 109l2 129l-2 424q0 41 -23.5 52t-138.5 26l-16 2v114h16q245 0 435 31v-20q0 -15 -3 -75q-3 -72 -4 -126l-4 -213l2 -195q1 -104 6 -229q6 -28 37 -39q23 -8 125 -22q8 0 17 -2v-117h-17q-33 0 -135 3t-170 3q-66 0 -163 -3 t-128 -3h-14zM8 1298q0 127 114 127q111 0 111 -120q0 -127 -113 -127q-112 0 -112 120zM393 1298q0 127 117 127q110 0 110 -120q0 -127 -113 -127q-114 0 -114 120z" />
<glyph unicode="&#xf1;" horiz-adv-x="1393" d="M41 -6v117l16 2q113 14 138 32q23 12 24 109l2 129l-2 424q0 41 -23.5 52t-138.5 26l-16 2v114h16q200 0 398 31l-4 -106q106 112 340 112q73 0 157 -16q65 -13 119 -49q109 -75 109 -250v-16l-7 -215l7 -312q2 -26 18 -35q37 -19 141 -32l17 -2v-117h-17q-54 0 -125.5 3 t-87.5 3q-27 0 -91 -3t-101 -3h-17q0 8 -2 12q-2 27 -4 121l-2 104q0 26 4 209q2 82 2 156q0 92 -12 152q-26 124 -197 124q-64 0 -106 -14q-48 -16 -78 -59q-37 -53 -37 -185v-16q2 -18 2 -195v-149q0 -55 6 -80q7 -28 37 -39q23 -8 125 -22q8 0 17 -2v-117h-17 q-33 0 -135 3t-170 3q-66 0 -163 -3t-128 -3h-14zM221 1255q115 150 258 150q56 0 104 -12l129 -33q49 -12 92 -12q69 0 132 65l81 -80q-109 -151 -243 -151q-73 0 -168 24q-128 33 -172 33q-70 0 -131 -61z" />
<glyph unicode="&#xf2;" horiz-adv-x="1243" d="M84 498q0 282 128.5 413t405.5 131q266 0 391.5 -131.5t125.5 -410.5q0 -533 -531 -533q-520 0 -520 531zM356 518q0 -207 59.5 -298t194.5 -91q134 0 193 88t59 287q0 198 -61 287.5t-195 89.5q-132 0 -191 -86t-59 -277zM178 1423h332l229 -270h-195z" />
<glyph unicode="&#xf3;" horiz-adv-x="1243" d="M84 498q0 282 128.5 413t405.5 131q266 0 391.5 -131.5t125.5 -410.5q0 -533 -531 -533q-520 0 -520 531zM356 518q0 -207 59.5 -298t194.5 -91q134 0 193 88t59 287q0 198 -61 287.5t-195 89.5q-132 0 -191 -86t-59 -277zM438 1153l235 270h330l-369 -270h-196z" />
<glyph unicode="&#xf4;" horiz-adv-x="1243" d="M84 498q0 282 128.5 413t405.5 131q266 0 391.5 -131.5t125.5 -410.5q0 -533 -531 -533q-520 0 -520 531zM356 518q0 -207 59.5 -298t194.5 -91q134 0 193 88t59 287q0 198 -61 287.5t-195 89.5q-132 0 -191 -86t-59 -277zM213 1153l237 293h269l249 -293h-196l-193 184 l-184 -184h-182z" />
<glyph unicode="&#xf5;" horiz-adv-x="1243" d="M84 498q0 282 128.5 413t405.5 131q266 0 391.5 -131.5t125.5 -410.5q0 -533 -531 -533q-520 0 -520 531zM356 518q0 -207 59.5 -298t194.5 -91q134 0 193 88t59 287q0 198 -61 287.5t-195 89.5q-132 0 -191 -86t-59 -277zM201 1255q115 150 258 150q56 0 104 -12 l129 -33q49 -12 92 -12q69 0 132 65l81 -80q-109 -151 -243 -151q-73 0 -168 24q-128 33 -172 33q-70 0 -131 -61z" />
<glyph unicode="&#xf6;" horiz-adv-x="1243" d="M84 498q0 282 128.5 413t405.5 131q266 0 391.5 -131.5t125.5 -410.5q0 -533 -531 -533q-520 0 -520 531zM356 518q0 -207 59.5 -298t194.5 -91q134 0 193 88t59 287q0 198 -61 287.5t-195 89.5q-132 0 -191 -86t-59 -277zM297 1298q0 127 114 127q111 0 111 -120 q0 -127 -113 -127q-112 0 -112 120zM682 1298q0 127 117 127q110 0 110 -120q0 -127 -113 -127q-114 0 -114 120z" />
<glyph unicode="&#xf8;" horiz-adv-x="1237" d="M27 -31l155 158q-44 49 -72 158t-28 229q0 270 132 399t409 129q231 0 358 -104l100 100h144l-174 -174q84 -124 84 -348q0 -547 -527 -547q-236 0 -352 86l-84 -86h-145zM356 494q0 -86 19 -179l436 455q-58 104 -209 104q-131 0 -188.5 -89t-57.5 -291zM418 215 q54 -84 192 -84q132 0 192 87.5t60 279.5q0 91 -16 164z" />
<glyph unicode="&#xf9;" horiz-adv-x="1372" d="M25 889v115h12q7 0 21.5 -1.5t23.5 -1.5q260 0 383 27v-16l-2 -209v-268l4 -177q3 -128 45.5 -178.5t149.5 -50.5t159.5 59.5t66.5 160.5q7 46 7 177v29l-2 246q0 36 -16 49q-19 15 -142 35l-16 4v115h10q13 0 40 -1.5t40 -1.5q184 0 350 27v-16l-4 -213q-2 -107 -2 -215 q0 -126 6 -363q1 -46 10 -63q11 -20 35 -29q61 -15 127 -18v-117h-16q-58 0 -124.5 3t-74.5 3q-21 0 -79 -3t-95 -3h-16q-6 37 -6 63v76q-95 -166 -340 -166q-174 0 -275 60q-54 32 -76 84q-28 69 -28 256q0 70 2 145t2 209v70v6q0 38 -10.5 50t-51.5 19l-102 19zM209 1423 h332l229 -270h-195z" />
<glyph unicode="&#xfa;" horiz-adv-x="1372" d="M25 889v115h12q7 0 21.5 -1.5t23.5 -1.5q260 0 383 27v-16l-2 -209v-268l4 -177q3 -128 45.5 -178.5t149.5 -50.5t159.5 59.5t66.5 160.5q7 46 7 177v29l-2 246q0 36 -16 49q-19 15 -142 35l-16 4v115h10q13 0 40 -1.5t40 -1.5q184 0 350 27v-16l-4 -213q-2 -107 -2 -215 q0 -126 6 -363q1 -46 10 -63q11 -20 35 -29q61 -15 127 -18v-117h-16q-58 0 -124.5 3t-74.5 3q-21 0 -79 -3t-95 -3h-16q-6 37 -6 63v76q-95 -166 -340 -166q-174 0 -275 60q-54 32 -76 84q-28 69 -28 256q0 70 2 145t2 209v70v6q0 38 -10.5 50t-51.5 19l-102 19zM484 1153 l235 270h330l-369 -270h-196z" />
<glyph unicode="&#xfb;" horiz-adv-x="1372" d="M25 889v115h12q7 0 21.5 -1.5t23.5 -1.5q260 0 383 27v-16l-2 -209v-268l4 -177q3 -128 45.5 -178.5t149.5 -50.5t159.5 59.5t66.5 160.5q7 46 7 177v29l-2 246q0 36 -16 49q-19 15 -142 35l-16 4v115h10q13 0 40 -1.5t40 -1.5q184 0 350 27v-16l-4 -213q-2 -107 -2 -215 q0 -126 6 -363q1 -46 10 -63q11 -20 35 -29q61 -15 127 -18v-117h-16q-58 0 -124.5 3t-74.5 3q-21 0 -79 -3t-95 -3h-16q-6 37 -6 63v76q-95 -166 -340 -166q-174 0 -275 60q-54 32 -76 84q-28 69 -28 256q0 70 2 145t2 209v70v6q0 38 -10.5 50t-51.5 19l-102 19zM246 1153 l237 293h269l249 -293h-196l-193 184l-184 -184h-182z" />
<glyph unicode="&#xfc;" horiz-adv-x="1372" d="M25 889v115h12q7 0 21.5 -1.5t23.5 -1.5q260 0 383 27v-16l-2 -209v-268l4 -177q3 -128 45.5 -178.5t149.5 -50.5t159.5 59.5t66.5 160.5q7 46 7 177v29l-2 246q0 36 -16 49q-19 15 -142 35l-16 4v115h10q13 0 40 -1.5t40 -1.5q184 0 350 27v-16l-4 -213q-2 -107 -2 -215 q0 -126 6 -363q1 -46 10 -63q11 -20 35 -29q61 -15 127 -18v-117h-16q-58 0 -124.5 3t-74.5 3q-21 0 -79 -3t-95 -3h-16q-6 37 -6 63v76q-95 -166 -340 -166q-174 0 -275 60q-54 32 -76 84q-28 69 -28 256q0 70 2 145t2 209v70v6q0 38 -10.5 50t-51.5 19l-102 19zM344 1298 q0 127 114 127q111 0 111 -120q0 -127 -113 -127q-112 0 -112 120zM729 1298q0 127 117 127q110 0 110 -120q0 -127 -113 -127q-114 0 -114 120z" />
<glyph unicode="&#xfd;" horiz-adv-x="1200" d="M-8 905v117h12q16 0 106 -3t164 -3q166 0 269 4l14 2v-117q-127 -19 -127 -51q0 -13 6 -33l15 -45q21 -68 88 -262l43 -119l59 -168l6 23l139 395q23 64 41 121q8 21 17 49q6 21 6 35q0 22 -21 29q-33 15 -102 26v117h10q68 -6 215 -6q178 0 258 6v-117 q-120 -16 -141 -37q-12 -12 -29 -51q-40 -96 -125 -330l-106 -294l-115 -328l-110 -332h-17q-45 0 -91.5 3t-47.5 3q-6 0 -54 -3t-91 -3h-15v115l13 2q59 9 135 26q19 10 41 68l51 135l-6 17l-72 213l-156 428q-40 111 -88 233q-21 55 -34 84q-9 18 -31 25q-9 2 -119 24z M422 1153l235 270h330l-369 -270h-196z" />
<glyph unicode="&#xff;" horiz-adv-x="1200" d="M-8 905v117h12q16 0 106 -3t164 -3q166 0 269 4l14 2v-117q-127 -19 -127 -51q0 -13 6 -33l15 -45q21 -68 88 -262l43 -119l59 -168l6 23l139 395q23 64 41 121q8 21 17 49q6 21 6 35q0 22 -21 29q-33 15 -102 26v117h10q68 -6 215 -6q178 0 258 6v-117 q-120 -16 -141 -37q-12 -12 -29 -51q-40 -96 -125 -330l-106 -294l-115 -328l-110 -332h-17q-45 0 -91.5 3t-47.5 3q-6 0 -54 -3t-91 -3h-15v115l13 2q59 9 135 26q19 10 41 68l51 135l-6 17l-72 213l-156 428q-40 111 -88 233q-21 55 -34 84q-9 18 -31 25q-9 2 -119 24z M324 1298q0 127 114 127q111 0 111 -120q0 -127 -113 -127q-112 0 -112 120zM709 1298q0 127 117 127q110 0 110 -120q0 -127 -113 -127q-114 0 -114 120z" />
<glyph unicode="&#x131;" horiz-adv-x="709" d="M41 -6v117l16 2q113 14 138 32q23 12 24 109l2 129l-2 424q0 41 -23.5 52t-138.5 26l-16 2v114h16q245 0 435 31v-20q0 -15 -3 -75q-3 -72 -4 -126l-4 -213l2 -195q1 -104 6 -229q6 -28 37 -39q23 -8 125 -22q8 0 17 -2v-117h-17q-33 0 -135 3t-170 3q-66 0 -163 -3 t-128 -3h-14z" />
<glyph unicode="&#x152;" horiz-adv-x="2173" d="M109 678q0 370 155 537t496 167q111 0 180 -6l162 -14q115 -10 385 -10q426 0 506 6l26 2v-53q0 -131 9 -246l2 -12h-127q-14 99 -39 118q-19 15 -45 15q-56 6 -213 6q-32 0 -107.5 -2t-122.5 -2h-20v-15l-4 -168v-198l-2 -15q8 -2 12 -2h350q63 0 88 15q28 21 39 121 h121v-15q0 -39 -1 -103t-1 -89q0 -39 2 -111t2 -106v-13h-125l-2 13q-10 62 -12 67q-12 42 -39 52q-10 4 -27 6h-53q-61 1 -152 2q-56 0 -116 -1q-67 -1 -68 -1h-18v-17l8 -446h16q18 0 95.5 -1t136.5 -1q269 0 295 14q33 19 47 145h125v-18q0 -25 -4.5 -106.5t-4.5 -126.5 q0 -39 2 -60v-12h-18q-55 0 -211 4t-258 4h-82q-279 0 -553 -22q-124 -11 -215 -11q-168 0 -301 60q-102 45 -178 139q-141 174 -141 510zM410 698q0 -342 133 -475q104 -104 284 -104q128 0 205 35q43 19 43 96v49l4 377q0 5 -2 207l-2 196q-1 80 -20 103q-46 53 -260 53 q-200 0 -292.5 -129.5t-92.5 -407.5z" />
<glyph unicode="&#x153;" horiz-adv-x="1950" d="M84 492q0 282 128 416t398 134q281 0 400 -133q32 33 67 56q120 77 309 77q240 0 343.5 -97.5t103.5 -323.5q0 -52 -2 -99h-19q-44 0 -150.5 2t-168.5 2q-313 0 -334 -2l-20 -2q3 -206 78 -295.5t241 -89.5q59 0 101 6q127 19 229 70l16 8v-194l-16 -4q-213 -54 -389 -54 q-272 0 -400 140q-4 -4 -10 -9q-72 -74 -137 -96q-103 -35 -246 -35q-269 0 -395.5 127t-126.5 396zM356 514q0 -226 76 -311q64 -72 180 -72q119 0 181 72q71 83 71 305q0 193 -62 282t-196 89q-132 0 -191 -86t-59 -279zM1145 668h20q14 0 92 -1t125 -1t106.5 1t72.5 1h18 q0 118 -47 163q-55 54 -158 54q-208 0 -229 -217z" />
<glyph unicode="&#x178;" horiz-adv-x="1374" d="M0 1235v125l12 -2q117 -6 295 -6q183 0 309 6l13 2v-125l-15 -2q-133 -19 -133 -41q0 -21 27 -68l227 -397l15 25l114 194l56 98q23 40 53 93q18 37 18 53q0 34 -131 45v125l10 -2q114 -6 234 -6q121 0 256 6l14 2v-125l-71 -10q-45 -7 -61.5 -16t-37.5 -42l-30 -47 l-353 -575l2 -131q1 -90 4 -215q3 -34 19 -47q27 -24 160 -33v-125h-13q-17 0 -122.5 3t-192.5 3q-89 0 -194 -3t-122 -3h-12v123q138 13 162 35q13 12 16.5 48t6.5 214l2 141l-7 10q-36 68 -159 283l-78 131l-78 127l-35 53q-19 30 -33 43q-23 19 -133 31q-13 2 -14 2z M395 1632q0 127 114 127q111 0 111 -120q0 -127 -113 -127q-112 0 -112 120zM780 1632q0 127 117 127q110 0 110 -120q0 -127 -113 -127q-114 0 -114 120z" />
<glyph unicode="&#x2c6;" horiz-adv-x="907" d="M76 1153l237 293h269l249 -293h-196l-193 184l-184 -184h-182z" />
<glyph unicode="&#x2da;" horiz-adv-x="512" d="M76 1292q0 189 180 189t180 -185q0 -182 -182 -182q-178 0 -178 178zM176 1292q0 -106 80 -106t80 108q0 115 -82 115q-78 0 -78 -109v-8z" />
<glyph unicode="&#x2dc;" horiz-adv-x="948" d="M76 1255q115 150 258 150q56 0 104 -12l129 -33q49 -12 92 -12q69 0 132 65l81 -80q-109 -151 -243 -151q-73 0 -168 24q-128 33 -172 33q-70 0 -131 -61z" />
<glyph unicode="&#x2000;" horiz-adv-x="913" />
<glyph unicode="&#x2001;" horiz-adv-x="1827" />
<glyph unicode="&#x2002;" horiz-adv-x="913" />
<glyph unicode="&#x2003;" horiz-adv-x="1827" />
<glyph unicode="&#x2004;" horiz-adv-x="609" />
<glyph unicode="&#x2005;" horiz-adv-x="456" />
<glyph unicode="&#x2006;" horiz-adv-x="304" />
<glyph unicode="&#x2007;" horiz-adv-x="304" />
<glyph unicode="&#x2008;" horiz-adv-x="228" />
<glyph unicode="&#x2009;" horiz-adv-x="365" />
<glyph unicode="&#x200a;" horiz-adv-x="101" />
<glyph unicode="&#x2010;" horiz-adv-x="649" d="M-6 485v168h20q18 0 114 -2t173 -2q92 0 203 2t131 2h20v-168q-12 0 -20 2q-119 5 -297 5q-197 0 -324 -5q-13 -2 -20 -2z" />
<glyph unicode="&#x2011;" horiz-adv-x="649" d="M-6 485v168h20q18 0 114 -2t173 -2q92 0 203 2t131 2h20v-168q-12 0 -20 2q-119 5 -297 5q-197 0 -324 -5q-13 -2 -20 -2z" />
<glyph unicode="&#x2012;" horiz-adv-x="649" d="M-6 485v168h20q18 0 114 -2t173 -2q92 0 203 2t131 2h20v-168q-12 0 -20 2q-119 5 -297 5q-197 0 -324 -5q-13 -2 -20 -2z" />
<glyph unicode="&#x2013;" d="M-12 487v166l20 -2q41 -4 520 -4l627 1q115 1 135 3l21 2v-166l-21 2q-41 5 -547 5h-94l-504 -2q-117 -1 -137 -3z" />
<glyph unicode="&#x2014;" horiz-adv-x="2595" d="M-27 487v168l21 -2q61 -6 999 -6h303l1323 8v-168l-20 2q-62 7 -1303 7z" />
<glyph unicode="&#x2018;" horiz-adv-x="649" d="M164 1010q0 176 137 370l90 -53q-76 -123 -76 -229q0 -94 56 -94q19 0 49 22l65 -84l-10 -10q-129 -107 -203 -184q-108 82 -108 262z" />
<glyph unicode="&#x2019;" horiz-adv-x="649" d="M166 1192q2 2 5.5 4.5t4.5 3.5q11 11 98 88q57 50 103 98q104 -82 104 -266q0 -177 -135 -366l-88 53q76 125 76 229q0 39 -17 66.5t-41 27.5q-19 0 -47 -22z" />
<glyph unicode="&#x201a;" horiz-adv-x="469" d="M70 74l10 8q92 74 205 186q108 -95 108 -264q0 -194 -131 -358l-8 -11l-90 52q76 125 76 231q0 37 -16.5 64.5t-39.5 27.5q-19 0 -47 -20z" />
<glyph unicode="&#x201c;" horiz-adv-x="911" d="M76 1010q0 178 139 370l88 -53q-76 -123 -76 -229q0 -39 16.5 -66.5t39.5 -27.5q21 0 49 22l65 -84l-10 -10q-129 -107 -203 -184q-108 82 -108 262zM514 1010q0 138 133 360l6 10l90 -53q-75 -126 -75 -231q0 -38 16 -65t39 -27q17 0 49 22l66 -84l-13 -10 q-110 -92 -202 -184q-109 85 -109 262z" />
<glyph unicode="&#x201d;" horiz-adv-x="897" d="M76 1192l8 8q22 22 98 88q52 45 103 98q106 -84 106 -266q0 -177 -135 -366l-90 53q76 122 76 227q0 96 -54 96q-21 0 -51 -22zM506 1192l8 8q10 10 98 88q58 51 103 98q106 -84 106 -266q0 -177 -135 -366l-90 53q76 122 76 227q0 96 -54 96q-21 0 -51 -22z" />
<glyph unicode="&#x201e;" horiz-adv-x="889" d="M70 76l10 8q115 92 205 186q108 -92 108 -266q0 -160 -131 -356l-8 -13l-90 54q76 125 76 231q0 38 -17 65t-41 27q-17 0 -45 -20zM496 76l10 8q106 85 203 186q108 -92 108 -266q0 -170 -131 -356l-6 -13l-90 54q76 130 76 231q0 37 -17.5 64.5t-40.5 27.5 q-19 0 -47 -20z" />
<glyph unicode="&#x2022;" horiz-adv-x="801" d="M164 674q0 101 68 173.5t163 72.5q100 0 171 -71.5t71 -172.5q0 -97 -70 -165.5t-170 -68.5q-96 0 -164.5 68t-68.5 164z" />
<glyph unicode="&#x2026;" d="M14 123q0 160 142 160q139 0 139 -152q0 -158 -143 -158q-138 0 -138 150zM508 123q0 160 141 160q142 0 142 -152q0 -158 -144 -158q-139 0 -139 150zM1001 123q0 160 142 160q141 0 141 -152q0 -158 -145 -158q-138 0 -138 150z" />
<glyph unicode="&#x202f;" horiz-adv-x="365" />
<glyph unicode="&#x2039;" horiz-adv-x="653" d="M86 475l219 332h262l-219 -332l217 -332h-262z" />
<glyph unicode="&#x203a;" horiz-adv-x="655" d="M86 807h262l221 -332l-219 -332h-262l219 332z" />
<glyph unicode="&#x2044;" horiz-adv-x="707" d="M-41 -6l629 1366h160l-629 -1366h-160z" />
<glyph unicode="&#x205f;" horiz-adv-x="456" />
<glyph unicode="&#x20ac;" d="M100 524l37 125q11 0 31 -1t39 -1h31v25q0 26 2 55h-29l-111 -2l37 125l13 -2q15 0 45 -1t55 -1q40 286 169 413t380 127q94 0 229 -12q90 -8 131 -8h8q-2 -29 -2 -66q0 -22 4.5 -119t4.5 -165v-17l-107 -2l-2 13l-10 82q-7 56 -27 73q-37 33 -182 33q-132 0 -213 -65 q-92 -75 -121 -287h123l182 2l14 2l-36 -125h-17l-276 2v-29q0 -26 2 -51h33q59 0 135 1t88 1h14l-37 -125l-16 2q-19 0 -77 1t-95 1h-33l6 -26q42 -180 99 -242q91 -100 239 -100q162 0 193 41q15 15 34 153l3 15h106v-15l-6 -147l-2 -176l-2 -13q-189 -51 -381 -51 q-263 0 -392.5 131t-166.5 430l-29 -2h-100z" />
<glyph unicode="&#x2122;" horiz-adv-x="1315" d="M86 1206l2 6l2 72v76l6 -2l62 -1q63 -1 125 -1t125 1l63 1l6 2v-68l4 -86l-45 -2q-10 70 -18 77t-74 7h-6q-2 -16 -2 -43l2 -350q0 -15 6 -37q9 -8 57 -14v-56h-4q-9 0 -47 1.5t-67 1.5t-67.5 -1.5t-47.5 -1.5h-4v56q37 4 49.5 8t13.5 43l2 90l-2 301h-37l-26 -2h-8 q-16 -2 -23 -70v-10zM578 788v56q55 3 61 18q2 5 6 43q1 23 2 82q1 20 3 85q1 45 1 95v70q0 43 -4 51q-9 10 -55 17h-4v53h4q19 0 47 -1t37 -1q10 0 36.5 1t41.5 1h4l2 -4l67 -137l76 -150l76 152q19 38 40 82t23 49l5 8h6q25 0 53 -1t31 -1q7 0 33.5 1t46.5 1h4v-55h-4 q-35 0 -43 -4q-17 -7 -17 -35v-97l4 -182q1 -45 4 -108q0 -17 9 -22t49 -11h6v-56h-6q-16 0 -53.5 1.5t-59.5 1.5q-23 0 -60.5 -1.5t-54.5 -1.5h-4v56q26 0 58 16q6 6 6 66l-2 291q-1 -4 -4 -9q-9 -14 -54 -102q-60 -120 -69 -143l-4 -7h-76l-2 7l-123 254v-17l-4 -145v-172 q0 -25 18 -32q6 -3 41 -7h6v-56h-6q-17 0 -47.5 1.5t-44.5 1.5q-10 0 -43.5 -1.5t-54.5 -1.5h-8z" />
<glyph unicode="&#xe000;" horiz-adv-x="1020" d="M0 1020h1020v-1020h-1020v1020z" />
<glyph unicode="&#xfb01;" horiz-adv-x="1469" d="M801 -6v117l16 2q113 14 138 32q23 12 24 109l2 129l-2 424q0 41 -23.5 52t-138.5 26l-16 2v114h16q245 0 435 31v-20q0 -15 -3 -75q-3 -72 -4 -126l-4 -213l2 -195q1 -104 6 -229q6 -28 37 -39q23 -8 125 -22q8 0 17 -2v-117h-17q-33 0 -135 3t-170 3q-66 0 -163 -3 t-128 -3h-14zM973 1315q0 158 145 158q142 0 142 -154q0 -158 -146 -158q-141 0 -141 154zM41 -6v117l16 2q104 13 138 32q23 14 24 109l4 598h-10l-109 -2v137q31 -2 78 -2h41v21l-2 141q0 156 70 229q50 54 146 70q50 8 165 8h191q-7 -37 -7 -90q0 -100 15 -229l2 -19 h-123q-20 125 -31 150.5t-55 25.5q-54 0 -86 -39q-37 -44 -37 -249v-19h23h-3l123 2l136 2q6 0 14 2l-16 -145h-15q-51 0 -125.5 3t-105.5 3h-27v-14l4 -273q1 -56 4 -219q2 -79 2 -125q0 -65 30 -80t134 -28l17 -2v-117h-17q-33 0 -134 3t-169 3q-66 0 -163 -3t-128 -3h-14 z" />
<glyph unicode="&#xfb02;" horiz-adv-x="1469" d="M801 -6v117l16 2q108 13 138 32q23 16 24 109l2 883q0 131 -14 143q-24 27 -166 37v115h16q246 0 435 32v-20q0 -55 -6 -300q-5 -235 -5 -351l2 -316q2 -279 8.5 -305t32.5 -35q27 -12 127 -24l17 -2v-117h-17q-33 0 -135 3t-170 3q-66 0 -163 -3t-128 -3h-14zM41 -6v117 l16 2q104 13 138 32q23 14 24 109l4 598h-10l-109 -2v137q31 -2 78 -2h41v21l-2 141q0 156 70 229q50 54 146 70q50 8 165 8h191q-7 -37 -7 -90q0 -100 15 -229l2 -19h-123q-20 125 -31 150.5t-55 25.5q-54 0 -86 -39q-37 -44 -37 -249v-19h23h-3l123 2l136 2q6 0 14 2 l-16 -145h-15q-51 0 -125.5 3t-105.5 3h-27v-14l4 -273q1 -56 4 -219q2 -79 2 -125q0 -65 30 -80t134 -28l17 -2v-117h-17q-33 0 -134 3t-169 3q-66 0 -163 -3t-128 -3h-14z" />
<glyph unicode="&#xfb03;" horiz-adv-x="2229" d="M1561 -6v117l16 2q113 14 138 32q23 12 24 109l2 129l-2 424q0 41 -23.5 52t-138.5 26l-16 2v114h16q245 0 435 31v-20q0 -15 -3 -75q-3 -72 -4 -126l-4 -213l2 -195q1 -104 6 -229q6 -28 37 -39q23 -8 125 -22q8 0 17 -2v-117h-17q-33 0 -135 3t-170 3q-66 0 -163 -3 t-128 -3h-14zM1733 1315q0 158 145 158q142 0 142 -154q0 -158 -146 -158q-141 0 -141 154zM801 -6v117l16 2q104 13 138 32q23 14 24 109l4 598h-10l-109 -2v137q31 -2 78 -2h41v21l-2 141q0 156 70 229q50 54 146 70q50 8 165 8h191q-7 -37 -7 -90q0 -100 15 -229l2 -19 h-123q-20 125 -31 150.5t-55 25.5q-54 0 -86 -39q-37 -44 -37 -249v-19h23h-3l123 2l136 2q6 0 14 2l-16 -145h-15q-51 0 -125.5 3t-105.5 3h-27v-14l4 -273q1 -56 4 -219q2 -79 2 -125q0 -65 30 -80t134 -28l17 -2v-117h-17q-33 0 -134 3t-169 3q-66 0 -163 -3t-128 -3h-14 zM41 -6v117l16 2q104 13 138 32q23 14 24 109l4 598h-10l-109 -2v137q31 -2 78 -2h41v21l-2 141q0 156 70 229q50 54 146 70q50 8 165 8h191q-7 -37 -7 -90q0 -100 15 -229l2 -19h-123q-20 125 -31 150.5t-55 25.5q-54 0 -86 -39q-37 -44 -37 -249v-19h23h-3l123 2l136 2 q6 0 14 2l-16 -145h-15q-51 0 -125.5 3t-105.5 3h-27v-14l4 -273q1 -56 4 -219q2 -79 2 -125q0 -65 30 -80t134 -28l17 -2v-117h-17q-33 0 -134 3t-169 3q-66 0 -163 -3t-128 -3h-14z" />
<glyph unicode="&#xfb04;" horiz-adv-x="2229" d="M1561 -6v117l16 2q108 13 138 32q23 16 24 109l2 883q0 131 -14 143q-24 27 -166 37v115h16q246 0 435 32v-20q0 -55 -6 -300q-5 -235 -5 -351l2 -316q2 -279 8.5 -305t32.5 -35q27 -12 127 -24l17 -2v-117h-17q-33 0 -135 3t-170 3q-66 0 -163 -3t-128 -3h-14zM801 -6 v117l16 2q104 13 138 32q23 14 24 109l4 598h-10l-109 -2v137q31 -2 78 -2h41v21l-2 141q0 156 70 229q50 54 146 70q50 8 165 8h191q-7 -37 -7 -90q0 -100 15 -229l2 -19h-123q-20 125 -31 150.5t-55 25.5q-54 0 -86 -39q-37 -44 -37 -249v-19h23h-3l123 2l136 2q6 0 14 2 l-16 -145h-15q-51 0 -125.5 3t-105.5 3h-27v-14l4 -273q1 -56 4 -219q2 -79 2 -125q0 -65 30 -80t134 -28l17 -2v-117h-17q-33 0 -134 3t-169 3q-66 0 -163 -3t-128 -3h-14zM41 -6v117l16 2q104 13 138 32q23 14 24 109l4 598h-10l-109 -2v137q31 -2 78 -2h41v21l-2 141 q0 156 70 229q50 54 146 70q50 8 165 8h191q-7 -37 -7 -90q0 -100 15 -229l2 -19h-123q-20 125 -31 150.5t-55 25.5q-54 0 -86 -39q-37 -44 -37 -249v-19h23h-3l123 2l136 2q6 0 14 2l-16 -145h-15q-51 0 -125.5 3t-105.5 3h-27v-14l4 -273q1 -56 4 -219q2 -79 2 -125 q0 -65 30 -80t134 -28l17 -2v-117h-17q-33 0 -134 3t-169 3q-66 0 -163 -3t-128 -3h-14z" />
</font>
</defs>
</svg>
